<svg width="51" height="50" viewBox="0 0 51 50" fill="none" xmlns="http://www.w3.org/2000/svg">
<path fill-rule="evenodd" clip-rule="evenodd" d="M9.47917 16C13.7733 16 17.4005 18.8553 18.5658 22.7709L40.625 22.7708V28.1875H37.9167V33.6042H29.7917V28.1875L18.5658 28.1874C17.4005 32.103 13.7733 34.9583 9.47917 34.9583C4.24397 34.9583 0 30.7144 0 25.4792C0 20.244 4.24397 16 9.47917 16ZM9.47917 21.4167C7.23551 21.4167 5.41667 23.2355 5.41667 25.4792C5.41667 27.7228 7.23551 29.5417 9.47917 29.5417C11.7228 29.5417 13.5417 27.7228 13.5417 25.4792C13.5417 23.2355 11.7228 21.4167 9.47917 21.4167Z" fill="white"/>
<path fill-rule="evenodd" clip-rule="evenodd" d="M31.1983 0.790162C31.2545 0.799517 31.3106 0.80892 31.3672 0.818322L37.031 1.76232C39.7402 2.21376 41.989 2.58851 43.7596 3.1156C45.6257 3.67118 47.2393 4.4708 48.491 5.94831C49.7427 7.42581 50.2661 9.14892 50.5072 11.081C50.7362 12.914 50.736 15.1939 50.736 17.9404V32.0596C50.736 34.8062 50.7362 37.086 50.5072 38.9192C50.2661 40.8511 49.7427 42.5743 48.491 44.0517C47.2393 45.5291 45.6257 46.329 43.7596 46.8843C41.989 47.4115 39.7402 47.7862 37.031 48.2376L31.1983 49.2099C28.7823 49.6127 26.7235 49.9559 25.0649 49.9959C23.3019 50.0386 21.5597 49.7582 20.091 48.5138C18.6222 47.2697 18.0591 45.5974 17.8113 43.8511C17.5781 42.2086 17.5782 40.1214 17.5784 37.6722V36.9982C17.5784 35.6903 18.6388 34.6298 19.9468 34.6298C21.2548 34.6298 22.3152 35.6903 22.3152 36.9982V37.5007C22.3152 40.1687 22.3209 41.9157 22.5011 43.1856C22.6721 44.3897 22.9464 44.7248 23.1526 44.8996C23.3589 45.0744 23.7346 45.2899 24.9505 45.2606C26.2328 45.2295 27.9567 44.9479 30.5885 44.5093L36.104 43.5901C38.9996 43.1074 40.9543 42.7773 42.408 42.3446C43.7985 41.9306 44.4446 41.5 44.8766 40.9901C45.3088 40.4799 45.6271 39.7718 45.8069 38.3323C45.9949 36.8272 45.9992 34.8448 45.9992 31.9092V18.0908C45.9992 15.1554 45.9949 13.173 45.8069 11.6678C45.6271 10.2283 45.3088 9.52021 44.8766 9.01006C44.4446 8.49993 43.7985 8.06945 42.408 7.6555C40.9543 7.22267 38.9996 6.89254 36.104 6.40993L30.5885 5.49068C27.9567 5.05208 26.2328 4.77045 24.9505 4.73947C23.7346 4.71011 23.3589 4.9257 23.1526 5.10047C22.9464 5.27523 22.6721 5.61026 22.5011 6.8145C22.3209 8.08427 22.3152 9.83121 22.3152 12.4992V13.4705C22.3152 14.7785 21.2548 15.8389 19.9468 15.8389C18.6388 15.8389 17.5784 14.7785 17.5784 13.4705V12.4992C17.5784 12.4419 17.5784 12.3848 17.5784 12.328C17.5782 9.87874 17.5781 7.79128 17.8113 6.14884C18.0591 4.40269 18.6222 2.7304 20.091 1.48619C21.5597 0.241972 23.3019 -0.0385419 25.0649 0.00404197C26.7233 0.0441153 28.7823 0.387391 31.1983 0.790162Z" fill="white"/>
</svg>
