<svg width="54" height="56" viewBox="0 0 54 56" fill="none" xmlns="http://www.w3.org/2000/svg">
<path d="M10.8714 41.119C10.8714 42.0407 10.8714 42.5017 10.9125 42.9024C11.2538 46.2288 13.6595 48.9765 16.9116 49.7544C17.3033 49.8481 17.7602 49.909 18.6738 50.0307L35.9697 52.337C40.893 52.9933 43.3549 53.3215 45.2653 52.5619C46.943 51.8949 48.3402 50.6717 49.2231 49.0972C50.2285 47.3035 50.2285 44.8201 50.2285 39.8532V16.1469C50.2285 11.18 50.2285 8.69646 49.2231 6.90304C48.3402 5.32844 46.943 4.10514 45.2653 3.43817C43.3549 2.67848 40.893 3.00669 35.9697 3.66314L18.6738 5.96928C17.7601 6.0911 17.3033 6.152 16.9116 6.2457C13.6595 7.02366 11.2538 9.77133 10.9125 13.0977C10.8714 13.4984 10.8714 13.9593 10.8714 14.881M26.6143 17.5048L37.1095 27.9999M37.1095 27.9999L26.6143 38.4952M37.1095 27.9999H3" stroke="white" stroke-width="6" stroke-linecap="round" stroke-linejoin="round"/>
</svg>
