<svg width="15" height="15" viewBox="0 0 20 20" fill="none" xmlns="http://www.w3.org/2000/svg">
<path d="M13.7487 8.16754C14.0212 7.89511 14.0212 7.45336 13.7487 7.1809C13.4763 6.90845 13.0346 6.90845 12.7621 7.1809L8.60428 11.3387L7.23714 9.97163C6.96469 9.69916 6.52294 9.69916 6.25048 9.97163C5.97803 10.2441 5.97803 10.6858 6.25048 10.9582L8.11095 12.8187C8.38344 13.0912 8.82512 13.0912 9.09758 12.8187L13.7487 8.16754Z" fill="white"/>
<path fill-rule="evenodd" clip-rule="evenodd" d="M10.0534 1.35057e-07H9.9466C7.79929 -9.16727e-06 6.11646 -1.85052e-05 4.80345 0.176512C3.45951 0.3572 2.39902 0.734261 1.56664 1.56664C0.734261 2.39902 0.3572 3.45951 0.176512 4.80345C-1.85052e-05 6.11646 -9.16727e-06 7.79927 1.35057e-07 9.9466V10.0534C-9.16727e-06 12.2007 -1.85052e-05 13.8835 0.176512 15.1966C0.3572 16.5405 0.734261 17.601 1.56664 18.4334C2.39902 19.2658 3.45951 19.6428 4.80345 19.8235C6.11646 20 7.79928 20 9.9466 20H10.0534C12.2007 20 13.8835 20 15.1966 19.8235C16.5405 19.6428 17.601 19.2658 18.4334 18.4334C19.2658 17.601 19.6428 16.5405 19.8235 15.1966C20 13.8835 20 12.2007 20 10.0534V9.9466C20 7.79928 20 6.11646 19.8235 4.80345C19.6428 3.45951 19.2658 2.39902 18.4334 1.56664C17.601 0.734261 16.5405 0.3572 15.1966 0.176512C13.8835 -1.85052e-05 12.2007 -9.16727e-06 10.0534 1.35057e-07ZM2.5533 2.5533C3.08321 2.02339 3.80016 1.7193 4.98938 1.55941C6.19866 1.39683 7.78769 1.39535 10 1.39535C12.2123 1.39535 13.8013 1.39683 15.0106 1.55941C16.1998 1.7193 16.9167 2.02339 17.4467 2.5533C17.9767 3.08321 18.2807 3.80016 18.4406 4.98938C18.6032 6.19866 18.6047 7.78769 18.6047 10C18.6047 12.2123 18.6032 13.8013 18.4406 15.0106C18.2807 16.1998 17.9767 16.9167 17.4467 17.4467C16.9167 17.9767 16.1998 18.2807 15.0106 18.4406C13.8013 18.6032 12.2123 18.6047 10 18.6047C7.78769 18.6047 6.19866 18.6032 4.98938 18.4406C3.80016 18.2807 3.08321 17.9767 2.5533 17.4467C2.02339 16.9167 1.7193 16.1998 1.55941 15.0106C1.39683 13.8013 1.39535 12.2123 1.39535 10C1.39535 7.78769 1.39683 6.19866 1.55941 4.98938C1.7193 3.80016 2.02339 3.08321 2.5533 2.5533Z" fill="white"/>
</svg>
