<svg width="20" height="20" viewBox="0 0 20 20" fill="none" xmlns="http://www.w3.org/2000/svg">
<path d="M17.5547 8.53125H15.4219V6.39844C15.4219 6.12675 15.2014 5.90625 14.9297 5.90625C14.658 5.90625 14.4375 6.12675 14.4375 6.39844V8.53125H10.1719V6.39844C10.1719 6.12675 9.95138 5.90625 9.67969 5.90625C9.408 5.90625 9.1875 6.12675 9.1875 6.39844V8.53125H4.92188V6.39844C4.92188 6.12675 4.70138 5.90625 4.42969 5.90625C4.158 5.90625 3.9375 6.12675 3.9375 6.39844V8.53125H1.80469C0.8085 8.53256 0.0013125 9.33975 0 10.3359V17.5547C0.0013125 18.5509 0.8085 19.3581 1.80469 19.3594H17.5547C18.5509 19.3581 19.3581 18.5509 19.3594 17.5547V10.3359C19.3581 9.33975 18.5509 8.53256 17.5547 8.53125ZM1.80469 9.51562H3.9375V10.9922C3.9375 11.2639 4.158 11.4844 4.42969 11.4844C4.70138 11.4844 4.92188 11.2639 4.92188 10.9922V9.51562H9.1875V10.9922C9.1875 11.2639 9.408 11.4844 9.67969 11.4844C9.95138 11.4844 10.1719 11.2639 10.1719 10.9922V9.51562H14.4375V10.9922C14.4375 11.2639 14.658 11.4844 14.9297 11.4844C15.2014 11.4844 15.4219 11.2639 15.4219 10.9922V9.51562H17.5547C18.0075 9.51628 18.3743 9.88313 18.375 10.3359V15.0518L16.5907 13.2674C16.4975 13.1795 16.3715 13.125 16.2323 13.125C16.2186 13.125 16.2048 13.1257 16.1917 13.1263H16.1936C16.042 13.1414 15.9121 13.2234 15.8333 13.3422L15.832 13.3442C14.74 14.994 13.6605 15.8438 12.6663 15.7461C11.1412 15.6227 10.1384 13.4361 10.1292 13.4144C10.0498 13.2425 9.87853 13.125 9.67969 13.125C9.48084 13.125 9.31087 13.2418 9.23213 13.4105L9.23081 13.4138C9.22031 13.4354 8.22937 15.5938 6.70884 15.7224C5.72644 15.7815 4.62722 14.9815 3.52472 13.3422C3.444 13.2228 3.31472 13.1421 3.16575 13.127H3.16378C3.15 13.1257 3.13425 13.125 3.11784 13.125C2.98134 13.125 2.85797 13.1795 2.76806 13.2681L0.983062 15.0531V10.3366C0.983719 9.88378 1.35056 9.51694 1.80337 9.51628L1.80469 9.51562ZM17.5547 18.375H1.80469C1.35187 18.3743 0.985031 18.0075 0.984375 17.5547V16.445L3.05156 14.3771C4.27678 16.0282 5.53941 16.8046 6.79481 16.7022C8.04366 16.462 9.07659 15.6929 9.66722 14.6416L9.67838 14.6206C10.2808 15.706 11.3223 16.4857 12.5567 16.7232L12.5829 16.7272C12.6558 16.7324 12.7293 16.7363 12.8021 16.7363C14.3161 16.546 15.5879 15.6542 16.298 14.4027L16.3098 14.3798L18.375 16.4456V17.5547C18.3743 18.0075 18.0075 18.3743 17.5547 18.375ZM4.42378 4.92188C5.53481 4.89563 6.44044 4.04709 6.55594 2.96297L6.55659 2.95312C6.55659 2.21025 5.32087 0.754687 4.78997 0.163406C4.69941 0.063 4.56947 0 4.42378 0H4.42312C4.27744 0 4.14684 0.0636563 4.05694 0.164062L4.05628 0.164719C3.52866 0.755344 2.30212 2.21091 2.30212 2.95312C2.415 4.04447 3.31538 4.893 4.4205 4.92188H4.42312H4.42378ZM4.42509 1.24556C4.88381 1.73381 5.26772 2.29884 5.55581 2.91834L5.57222 2.95772C5.45869 3.50437 4.99275 3.91322 4.42641 3.9375H4.42378C3.85941 3.91125 3.39675 3.50372 3.28847 2.96756L3.28716 2.95969C3.58706 2.30016 3.969 1.73447 4.42838 1.24228L4.42509 1.24556ZM9.67378 4.92188C10.7848 4.89563 11.6898 4.04709 11.8053 2.96297L11.8059 2.95312C11.8059 2.21025 10.5709 0.754687 10.04 0.163406C9.94941 0.063 9.81947 0 9.67378 0H9.67313C9.52744 0 9.39684 0.0636563 9.30694 0.164062L9.30628 0.164719C8.77866 0.755344 7.55213 2.21091 7.55213 2.95312C7.665 4.04447 8.56538 4.893 9.6705 4.92188H9.67313H9.67378ZM9.67509 1.24556C10.1338 1.73381 10.5177 2.29884 10.8052 2.91834L10.8216 2.95772C10.733 3.51619 10.2552 3.9375 9.67903 3.9375C9.1035 3.9375 8.62641 3.51684 8.53781 2.96625L8.53716 2.95969C8.83706 2.30016 9.219 1.73447 9.67838 1.24228L9.67509 1.24556ZM14.9231 4.92188C16.0348 4.89563 16.9398 4.04709 17.0553 2.96297L17.0559 2.95312C17.0559 2.21025 15.8202 0.754687 15.29 0.163406C15.1994 0.063 15.0688 0 14.9231 0H14.9218C14.7761 0.00065625 14.6455 0.0636563 14.5556 0.164062L14.555 0.164719C14.028 0.756 12.8028 2.21091 12.8028 2.95312C12.915 4.04447 13.8154 4.89234 14.9198 4.92188H14.9231ZM14.9244 1.24622C15.3832 1.73447 15.7677 2.2995 16.0552 2.91834L16.0716 2.95772C15.9836 3.51619 15.5059 3.9375 14.9297 3.9375C14.3542 3.9375 13.8771 3.51684 13.7885 2.96625L13.7878 2.95969C14.0871 2.30081 14.4683 1.73447 14.9277 1.24294L14.9244 1.24622Z" fill="black"/>
</svg>
