<svg width="18" height="20" viewBox="0 0 18 20" fill="none" xmlns="http://www.w3.org/2000/svg">
<path fill-rule="evenodd" clip-rule="evenodd" d="M8.02486 4.21586e-07H9.97514C11.6716 -1.81831e-05 13.0152 -2.75373e-05 14.0668 0.142456C15.149 0.289079 16.025 0.598028 16.7158 1.29418C17.4066 1.99034 17.7131 2.87308 17.8587 3.9637C18 5.02343 18 6.37752 18 8.08706V11.9129C18 13.6225 18 14.9766 17.8587 16.0363C17.7131 17.1269 17.4066 18.0097 16.7158 18.7059C16.025 19.402 15.149 19.7109 14.0668 19.8576C13.0152 20 11.6716 20 9.97514 20H8.02486C6.32846 20 4.98479 20 3.93321 19.8576C2.85098 19.7109 1.97502 19.402 1.28422 18.7059C0.593428 18.0097 0.286856 17.1269 0.14136 16.0363C-2.72244e-05 14.9766 -1.80432e-05 13.6225 4.183e-07 11.9129V8.08705C-1.80432e-05 6.37751 -2.72244e-05 5.02343 0.14136 3.9637C0.286856 2.87308 0.593428 1.99034 1.28422 1.29418C1.97502 0.598028 2.85098 0.289079 3.93321 0.142456C4.98479 -2.75373e-05 6.32845 -1.81831e-05 8.02486 4.21586e-07ZM4.11771 1.52536C3.18901 1.65118 2.65395 1.88715 2.26329 2.28084C1.87264 2.67452 1.63848 3.21373 1.51363 4.14963C1.38608 5.10559 1.38462 6.36575 1.38462 8.13953V11.8605C1.38462 13.6342 1.38608 14.8944 1.51363 15.8504C1.63848 16.7862 1.87264 17.3255 2.26329 17.7192C2.65395 18.1128 3.18901 18.3488 4.11771 18.4746C5.06632 18.6032 6.31678 18.6047 8.07692 18.6047H9.92308C11.6832 18.6047 12.9337 18.6032 13.8823 18.4746C14.811 18.3488 15.3461 18.1128 15.7367 17.7192C16.1274 17.3255 16.3615 16.7862 16.4863 15.8504C16.6139 14.8944 16.6154 13.6342 16.6154 11.8605V8.13953C16.6154 6.36575 16.6139 5.10559 16.4863 4.14963C16.3615 3.21373 16.1274 2.67452 15.7367 2.28084C15.3461 1.88715 14.811 1.65118 13.8823 1.52536C12.9337 1.39683 11.6832 1.39535 9.92308 1.39535H8.07692C6.31678 1.39535 5.06632 1.39683 4.11771 1.52536ZM4.61539 6.27907C4.61539 5.89376 4.92535 5.5814 5.30769 5.5814H12.6923C13.0746 5.5814 13.3846 5.89376 13.3846 6.27907C13.3846 6.66438 13.0746 6.97674 12.6923 6.97674H5.30769C4.92535 6.97674 4.61539 6.66438 4.61539 6.27907ZM4.61539 10C4.61539 9.6147 4.92535 9.30233 5.30769 9.30233H12.6923C13.0746 9.30233 13.3846 9.6147 13.3846 10C13.3846 10.3853 13.0746 10.6977 12.6923 10.6977H5.30769C4.92535 10.6977 4.61539 10.3853 4.61539 10ZM4.61539 13.7209C4.61539 13.3356 4.92535 13.0233 5.30769 13.0233H9.92308C10.3054 13.0233 10.6154 13.3356 10.6154 13.7209C10.6154 14.1062 10.3054 14.4186 9.92308 14.4186H5.30769C4.92535 14.4186 4.61539 14.1062 4.61539 13.7209Z" fill="white"/>
</svg>
