<svg width="15" height="15" viewBox="0 0 15 15" fill="none" xmlns="http://www.w3.org/2000/svg">
<path fill-rule="evenodd" clip-rule="evenodd" d="M10.8986 7.49696L14.2975 4.10162C15.2353 3.16581 15.2353 1.64217 14.2975 0.706358C13.3585 -0.235453 11.837 -0.235453 10.8986 0.706358L7.50015 4.10162L4.10175 0.706358C3.16395 -0.235453 1.64235 -0.235453 0.70335 0.706358C-0.23445 1.64217 -0.23445 3.16581 0.70335 4.10162L4.10175 7.49696L0.70335 10.8983C-0.23445 11.8341 -0.23445 13.3578 0.70335 14.2936C1.64235 15.2355 3.16395 15.2355 4.10175 14.2936L7.50015 10.8983L10.8986 14.2936C11.837 15.2355 13.3585 15.2355 14.2975 14.2936C15.2353 13.3578 15.2353 11.8341 14.2975 10.8983L10.8986 7.49696Z" fill="#CCCCCC"/>
</svg>
