<svg width="30" height="30" viewBox="0 0 30 30" fill="none" xmlns="http://www.w3.org/2000/svg">
<path fill-rule="evenodd" clip-rule="evenodd" d="M21.7971 14.9939L28.5951 8.20325C30.4707 6.33162 30.4707 3.28434 28.5951 1.41272C26.7171 -0.470905 23.6739 -0.470905 21.7971 1.41272L15.0003 8.20325L8.2035 1.41272C6.3279 -0.470905 3.2847 -0.470905 1.4067 1.41272C-0.4689 3.28434 -0.4689 6.33162 1.4067 8.20325L8.2035 14.9939L1.4067 21.7966C-0.4689 23.6682 -0.4689 26.7157 1.4067 28.5873C3.2847 30.4709 6.3279 30.4709 8.2035 28.5873L15.0003 21.7966L21.7971 28.5873C23.6739 30.4709 26.7171 30.4709 28.5951 28.5873C30.4707 26.7157 30.4707 23.6682 28.5951 21.7966L21.7971 14.9939Z" fill="#1F1F1F"/>
</svg>
