<svg width="16" height="16" viewBox="0 0 16 16" fill="none" xmlns="http://www.w3.org/2000/svg">
<path fill-rule="evenodd" clip-rule="evenodd" d="M11.6251 7.99676L15.2507 4.37506C16.251 3.37687 16.251 1.75165 15.2507 0.753449C14.2491 -0.25115 12.6261 -0.25115 11.6251 0.753449L8.00016 4.37506L4.3752 0.753449C3.37488 -0.25115 1.75184 -0.25115 0.75024 0.753449C-0.25008 1.75165 -0.25008 3.37687 0.75024 4.37506L4.3752 7.99676L0.75024 11.6249C-0.25008 12.6231 -0.25008 14.2484 0.75024 15.2466C1.75184 16.2511 3.37488 16.2511 4.3752 15.2466L8.00016 11.6249L11.6251 15.2466C12.6261 16.2511 14.2491 16.2511 15.2507 15.2466C16.251 14.2484 16.251 12.6231 15.2507 11.6249L11.6251 7.99676Z" fill="white"/>
</svg>
