<svg width="20" height="20" viewBox="0 0 20 20" fill="none" xmlns="http://www.w3.org/2000/svg">
<path d="M1 7V18C1 18.2652 1.10536 18.5196 1.29289 18.7071C1.48043 18.8946 1.73478 19 2 19H18C18.2652 19 18.5196 18.8946 18.7071 18.7071C18.8946 18.5196 19 18.2652 19 18V7M1 7H19M1 7V3C1 2.73478 1.10536 2.48043 1.29289 2.29289C1.48043 2.10536 1.73478 2 2 2H18C18.2652 2 18.5196 2.10536 18.7071 2.29289C18.8946 2.48043 19 2.73478 19 3V7" stroke="#282C34" stroke-width="2" stroke-linecap="round" stroke-linejoin="round"/>
<path d="M14 1V4M6 1V4M10 15V11" stroke="#282C34" stroke-width="2" stroke-linecap="round" stroke-linejoin="round"/>
<path d="M8 13L10 15L12 13" stroke="#282C34" stroke-width="2" stroke-linecap="round" stroke-linejoin="round"/>
</svg>
