<svg width="20" height="20" viewBox="0 0 20 20" fill="none" xmlns="http://www.w3.org/2000/svg">
<path d="M1 7.00006V18.0002C1 18.2654 1.10536 18.5198 1.2929 18.7073C1.48044 18.8948 1.73479 19.0002 2.00001 19.0002H18.0002C18.2654 19.0002 18.5198 18.8948 18.7073 18.7073C18.8949 18.5198 19.0002 18.2654 19.0002 18.0002V7.00006M1 7.00006H19.0002M1 7.00006V3.00001C1 2.73479 1.10536 2.48044 1.2929 2.2929C1.48044 2.10536 1.73479 2 2.00001 2H18.0002C18.2654 2 18.5198 2.10536 18.7073 2.2929C18.8949 2.48044 19.0002 2.73479 19.0002 3.00001V7.00006" stroke="#282C34" stroke-width="2" stroke-linecap="round" stroke-linejoin="round"/>
<path d="M14.0002 1V4.00003M6.00006 1V4.00003M10.0001 11.0001V15.0002" stroke="#282C34" stroke-width="2" stroke-linecap="round" stroke-linejoin="round"/>
<path d="M8.00009 13L10.0001 11L12.0001 13" stroke="#282C34" stroke-width="2" stroke-linecap="round" stroke-linejoin="round"/>
</svg>
