<svg width="19" height="18" viewBox="0 0 19 18" fill="none" xmlns="http://www.w3.org/2000/svg">
<path d="M16.5172 1.67124H14.0772V0.545068C14.0667 0.241752 13.8189 0 13.5141 0C13.2093 0 12.9615 0.241752 12.951 0.544317V1.67124H9.57247V0.545068C9.56196 0.241752 9.3142 0 9.00938 0C8.70457 0 8.45681 0.241752 8.4463 0.544317V1.67124H5.06778V0.545068C5.05727 0.241752 4.80951 0 4.50469 0C4.19987 0 3.95212 0.241752 3.94161 0.544317V1.67124H1.50156C0.672701 1.67124 0 2.34319 0 3.17205V16.4984C0 17.3281 0.67195 18 1.50156 18H16.5172C17.3468 18 18.0188 17.3281 18.0188 16.4984V3.17205C18.0188 2.34319 17.3461 1.67124 16.5172 1.67124ZM16.8926 16.4992C16.8926 16.7064 16.7244 16.8738 16.518 16.8746H1.50156C1.29435 16.8746 1.12617 16.7064 1.12617 16.4992V3.1728C1.12692 2.96559 1.29435 2.79816 1.50156 2.79816H3.94161V3.92434C3.95212 4.22765 4.19987 4.46941 4.50469 4.46941C4.80951 4.46941 5.05727 4.22765 5.06778 3.92509V2.79816H8.4463V3.92434C8.45681 4.22765 8.70457 4.46941 9.00938 4.46941C9.3142 4.46941 9.56196 4.22765 9.57247 3.92509V2.79816H12.951V3.92434C12.9615 4.22765 13.2093 4.46941 13.5141 4.46941C13.8189 4.46941 14.0667 4.22765 14.0772 3.92509V2.79816H16.5172C16.7244 2.79816 16.8918 2.96634 16.8918 3.1728L16.8926 16.4992Z" fill="#717171"/>
<path d="M3.94159 6.73877H6.19394V8.42803H3.94159V6.73877Z" fill="#717171"/>
<path d="M3.94159 9.5542H6.19394V11.2435H3.94159V9.5542Z" fill="#717171"/>
<path d="M3.94159 12.3696H6.19394V14.0589H3.94159V12.3696Z" fill="#717171"/>
<path d="M7.88324 12.3696H10.1356V14.0589H7.88324V12.3696Z" fill="#717171"/>
<path d="M7.88324 9.5542H10.1356V11.2435H7.88324V9.5542Z" fill="#717171"/>
<path d="M7.88324 6.73877H10.1356V8.42803H7.88324V6.73877Z" fill="#717171"/>
<path d="M11.8248 12.3696H14.0772V14.0589H11.8248V12.3696Z" fill="#717171"/>
<path d="M11.8248 9.5542H14.0772V11.2435H11.8248V9.5542Z" fill="#717171"/>
<path d="M11.8248 6.73877H14.0772V8.42803H11.8248V6.73877Z" fill="#717171"/>
</svg>
