<svg width="20" height="18" viewBox="0 0 20 18" fill="none" xmlns="http://www.w3.org/2000/svg">
<path d="M9.39375 0.399524C8.86109 -0.133175 7.99752 -0.133175 7.46472 0.399524L0.798086 7.07271C-0.266397 8.1383 -0.265974 9.8649 0.799028 10.9298L7.46963 17.6005C8.00243 18.1332 8.866 18.1332 9.3988 17.6005C9.93145 17.0678 9.93145 16.2041 9.3988 15.6715L3.68933 9.96202C3.15665 9.42936 3.15665 8.56579 3.68933 8.03299L9.39375 2.32856C9.92654 1.79588 9.92654 0.932209 9.39375 0.399524Z" fill="#CCCCCC"/>
<path d="M19.3937 0.399524C18.8611 -0.133175 17.9975 -0.133175 17.4647 0.399524L10.7981 7.07271C9.7336 8.1383 9.73403 9.8649 10.799 10.9298L17.4696 17.6005C18.0024 18.1332 18.866 18.1332 19.3988 17.6005C19.9315 17.0678 19.9315 16.2041 19.3988 15.6715L13.6893 9.96202C13.1566 9.42936 13.1566 8.56579 13.6893 8.03299L19.3937 2.32856C19.9265 1.79588 19.9265 0.932209 19.3937 0.399524Z" fill="#CCCCCC"/>
</svg>
