<svg width="20" height="18" viewBox="0 0 20 18" fill="none" xmlns="http://www.w3.org/2000/svg">
<path d="M0.404591 17.6005C0.937248 18.1332 1.80082 18.1332 2.33362 17.6005L9.00025 10.9273C10.0647 9.8617 10.0643 8.1351 8.99931 7.0702L2.32871 0.399494C1.79591 -0.133163 0.932338 -0.133163 0.399544 0.399494C-0.133114 0.932152 -0.133114 1.79586 0.399544 2.32852L6.10901 8.03798C6.64169 8.57064 6.64169 9.43421 6.10901 9.96701L0.404591 15.6714C-0.128203 16.2041 -0.128203 17.0678 0.404591 17.6005Z" fill="#52C1E4"/>
<path d="M10.4046 17.6005C10.9372 18.1332 11.8008 18.1332 12.3336 17.6005L19.0003 10.9273C20.0647 9.8617 20.0643 8.1351 18.9993 7.0702L12.3287 0.399494C11.7959 -0.133163 10.9323 -0.133163 10.3995 0.399494C9.86689 0.932152 9.86689 1.79586 10.3995 2.32852L16.109 8.03798C16.6417 8.57064 16.6417 9.43421 16.109 9.96701L10.4046 15.6714C9.8718 16.2041 9.8718 17.0678 10.4046 17.6005Z" fill="#52C1E4"/>
</svg>
