<svg width="29" height="18" viewBox="0 0 29 18" fill="none" xmlns="http://www.w3.org/2000/svg">
<path d="M28.0035 5.4764C28.5537 5.4764 28.9999 4.95131 28.9999 4.30359V1.17281C28.9999 0.525206 28.5538 0 28.0035 0H0.996444C0.44613 0.000114925 0 0.525206 0 1.17281V4.30371C0 4.95131 0.44613 5.47652 0.996444 5.47652C2.6471 5.47652 3.99017 7.0572 3.99017 9.00012C3.99017 10.943 2.64719 12.5237 0.996444 12.5237C0.44613 12.5236 0 13.0487 0 13.6963V16.8272C0 17.4748 0.44613 18 0.996444 18H28.0036C28.5538 18 29 17.4749 29 16.8272V13.6963C29 13.0487 28.5539 12.5235 28.0036 12.5235C26.3529 12.5235 25.0098 10.9428 25.0098 8.99988C25.0098 7.05696 26.3528 5.4764 28.0035 5.4764ZM1.99279 14.7513C4.2665 14.2063 5.98286 11.8346 5.98286 9C5.98286 6.16538 4.2665 3.79356 1.99279 3.2487V2.34562H19.7288V15.6544H1.99279V14.7513ZM27.0071 14.7513V15.6544H21.7217V2.34562H27.0071V3.2487C24.7334 3.79367 23.017 6.16538 23.017 9C23.017 11.8346 24.7334 14.2064 27.0071 14.7513Z" fill="black"/>
<path d="M13.2219 8.2576V6.08771C13.7987 6.29193 14.1601 6.69302 14.1601 7.06526C14.1601 7.51864 14.5277 7.88617 14.981 7.88617C15.4344 7.88617 15.8019 7.51864 15.8019 7.06526C15.8019 5.75006 14.7197 4.67792 13.2219 4.38751V3.66417C13.2219 3.21079 12.8544 2.84326 12.401 2.84326C11.9476 2.84326 11.5801 3.21079 11.5801 3.66417V4.38751C10.0822 4.67792 9 5.75006 9 7.06526C9 8.38046 10.0822 9.45259 11.5801 9.74301V11.9129C11.0033 11.7087 10.6418 11.3076 10.6418 10.9354C10.6418 10.482 10.2743 10.1144 9.82091 10.1144C9.36753 10.1144 9 10.482 9 10.9354C9 12.2506 10.0822 13.3227 11.5801 13.6131V14.3364C11.5801 14.7898 11.9476 15.1574 12.401 15.1574C12.8544 15.1574 13.2219 14.7898 13.2219 14.3364V13.6131C14.7197 13.3227 15.8019 12.2506 15.8019 10.9354C15.8019 9.62015 14.7197 8.54802 13.2219 8.2576ZM10.6417 7.06514C10.6417 6.69302 11.003 6.29181 11.5799 6.08759V8.04258C11.0031 7.83847 10.6417 7.43727 10.6417 7.06514ZM13.2219 11.9128V9.9578C13.7987 10.162 14.1601 10.5631 14.1601 10.9352C14.1601 11.3074 13.7987 11.7087 13.2219 11.9128Z" fill="black"/>
</svg>
