<svg width="24" height="22" viewBox="0 0 24 22" fill="none" xmlns="http://www.w3.org/2000/svg">
<path d="M1.60221 1L21.6022 21M9.20697 8.68182C8.62625 9.28178 8.26888 10.0991 8.26888 11C8.26888 12.841 9.7613 14.3333 11.6022 14.3333C12.5161 14.3333 13.3441 13.9656 13.9462 13.37M5.4911 5.05239C3.38077 6.44482 1.77336 8.53771 1 11C2.41583 15.5079 6.62729 18.7778 11.6024 18.7778C13.8123 18.7778 15.8715 18.1327 17.602 17.0204M10.4911 3.2771C10.8566 3.24081 11.2274 3.22222 11.6024 3.22222C16.5776 3.22222 20.7891 6.49212 22.2049 11C21.893 11.9933 21.4452 12.9264 20.8835 13.7778" stroke="#717171" stroke-width="2" stroke-linecap="round" stroke-linejoin="round"/>
</svg>
