<svg width="20" height="20" viewBox="0 0 20 20" fill="none" xmlns="http://www.w3.org/2000/svg">
<path fill-rule="evenodd" clip-rule="evenodd" d="M20 2.72727C20 1.22105 18.779 0 17.2727 0H2.72727C1.22105 0 0 1.22105 0 2.72727V17.2727C0 18.779 1.22105 20 2.72727 20H17.2727C18.779 20 20 18.779 20 17.2727V2.72727ZM18.1818 2.72727C18.1818 2.2252 17.7748 1.81818 17.2727 1.81818H2.72727C2.2252 1.81818 1.81818 2.2252 1.81818 2.72727V17.2727C1.81818 17.7748 2.2252 18.1818 2.72727 18.1818H17.2727C17.7748 18.1818 18.1818 17.7748 18.1818 17.2727V2.72727Z" fill="white"/>
<path d="M3.46043 15.0192L7.38357 7.8268C7.72813 7.1951 8.63521 7.1951 8.97975 7.8268L11.8603 13.1078L12.8469 11.3813C13.1959 10.7705 14.0765 10.7705 14.4255 11.3813L16.4954 15.0035C16.8417 15.6095 16.404 16.3636 15.706 16.3636H4.25852C3.56846 16.3636 3.13 15.625 3.46043 15.0192Z" fill="white"/>
<path d="M15.4547 6.36359C15.4547 7.36775 14.6407 8.18177 13.6365 8.18177C12.6324 8.18177 11.8184 7.36775 11.8184 6.36359C11.8184 5.35944 12.6324 4.54541 13.6365 4.54541C14.6407 4.54541 15.4547 5.35944 15.4547 6.36359Z" fill="white"/>
</svg>
