<svg width="20" height="20" viewBox="0 0 20 20" fill="none" xmlns="http://www.w3.org/2000/svg">
<path fill-rule="evenodd" clip-rule="evenodd" d="M20 2.72727C20 1.22105 18.779 0 17.2727 0H2.72727C1.22105 0 0 1.22105 0 2.72727V17.2727C0 18.779 1.22105 20 2.72727 20H17.2727C18.779 20 20 18.779 20 17.2727V2.72727ZM18.1818 2.72727C18.1818 2.2252 17.7748 1.81818 17.2727 1.81818H2.72727C2.2252 1.81818 1.81818 2.2252 1.81818 2.72727V17.2727C1.81818 17.7748 2.2252 18.1818 2.72727 18.1818H17.2727C17.7748 18.1818 18.1818 17.7748 18.1818 17.2727V2.72727Z" fill="#52C1E4"/>
<path d="M3.46043 15.0191L7.38357 7.82673C7.72813 7.19504 8.63521 7.19504 8.97975 7.82673L11.8603 13.1078L12.8469 11.3812C13.1959 10.7705 14.0765 10.7705 14.4255 11.3812L16.4954 15.0035C16.8417 15.6095 16.404 16.3636 15.706 16.3636H4.25852C3.56846 16.3636 3.13 15.6249 3.46043 15.0191Z" fill="#52C1E4"/>
<path d="M15.4547 6.36353C15.4547 7.36769 14.6407 8.18171 13.6365 8.18171C12.6324 8.18171 11.8184 7.36769 11.8184 6.36353C11.8184 5.35938 12.6324 4.54535 13.6365 4.54535C14.6407 4.54535 15.4547 5.35938 15.4547 6.36353Z" fill="#52C1E4"/>
</svg>
