<svg width="20" height="20" viewBox="0 0 20 20" fill="none" xmlns="http://www.w3.org/2000/svg">
<path d="M10.0001 2.71436L12.5239 6.66672H7.42864L10.0001 2.71436ZM10.0001 8.8563e-05C9.83645 0.00711001 9.67707 0.0542044 9.53592 0.137234C9.39477 0.220264 9.27617 0.336688 9.19054 0.476277L4.85723 7.14291C4.78553 7.29142 4.74829 7.4542 4.74829 7.6191C4.74829 7.78401 4.78553 7.94679 4.85723 8.09529C4.93566 8.24115 5.05262 8.36268 5.19536 8.44665C5.3381 8.53062 5.50116 8.5738 5.66675 8.57148H14.2858C14.4494 8.56446 14.6087 8.51736 14.7499 8.43433C14.891 8.3513 15.0096 8.23488 15.0953 8.09529C15.1895 7.95434 15.2397 7.78862 15.2397 7.6191C15.2397 7.44958 15.1895 7.28387 15.0953 7.14291L10.8096 0.476277C10.7312 0.330418 10.6142 0.208883 10.4714 0.124916C10.3287 0.0409493 10.1657 -0.00222821 10.0001 8.8563e-05Z" fill="#1F1F1F"/>
<path d="M19.0475 19.5241H12.3808C12.1283 19.5241 11.886 19.4237 11.7074 19.2451C11.5288 19.0665 11.4285 18.8243 11.4285 18.5717V11.9051C11.4285 11.6525 11.5288 11.4102 11.7074 11.2316C11.886 11.053 12.1283 10.9527 12.3808 10.9527H19.0475C19.3001 10.9527 19.5423 11.053 19.7209 11.2316C19.8995 11.4102 19.9999 11.6525 19.9999 11.9051V18.5717C19.9999 18.8243 19.8995 19.0665 19.7209 19.2451C19.5423 19.4237 19.3001 19.5241 19.0475 19.5241ZM13.3332 17.6193H18.0951V12.8575H13.3332V17.6193Z" fill="#1F1F1F"/>
<path d="M4.76189 12.3811C5.32697 12.3811 5.87937 12.5486 6.34922 12.8626C6.81907 13.1765 7.18528 13.6228 7.40153 14.1448C7.61778 14.6669 7.67436 15.2414 7.56412 15.7956C7.45387 16.3498 7.18176 16.8589 6.78218 17.2585C6.3826 17.6581 5.87351 17.9302 5.31928 18.0404C4.76505 18.1507 4.19058 18.0941 3.66851 17.8778C3.14644 17.6616 2.70021 17.2954 2.38627 16.8255C2.07232 16.3557 1.90476 15.8033 1.90476 15.2382C1.90476 14.4804 2.20577 13.7537 2.74159 13.2179C3.2774 12.6821 4.00413 12.3811 4.76189 12.3811ZM4.76189 10.4763C3.82007 10.4763 2.89941 10.7556 2.11632 11.2788C1.33324 11.8021 0.722895 12.5458 0.362479 13.4159C0.00206325 14.286 -0.0922379 15.2435 0.0915004 16.1672C0.275239 17.0909 0.728764 17.9394 1.39473 18.6054C2.06069 19.2713 2.90917 19.7248 3.83289 19.9086C4.7566 20.0923 5.71406 19.998 6.58418 19.6376C7.4543 19.2772 8.198 18.6668 8.72124 17.8838C9.24449 17.1007 9.52377 16.18 9.52377 15.2382C9.52377 14.6129 9.4006 13.9936 9.16129 13.4159C8.92198 12.8382 8.57123 12.3132 8.12904 11.871C7.68686 11.4289 7.16192 11.0781 6.58418 10.8388C6.00644 10.5995 5.38722 10.4763 4.76189 10.4763Z" fill="#1F1F1F"/>
</svg>
