<svg width="19" height="20" viewBox="0 0 19 20" fill="none" xmlns="http://www.w3.org/2000/svg">
<path d="M15.4 9.1H2.8C1.80589 9.1 1 9.90589 1 10.9V17.2C1 18.1941 1.80589 19 2.8 19H15.4C16.3941 19 17.2 18.1941 17.2 17.2V10.9C17.2 9.90589 16.3941 9.1 15.4 9.1Z" stroke="white" stroke-width="2" stroke-linecap="round" stroke-linejoin="round"/>
<path d="M4.59998 9.1V5.5C4.59998 4.30653 5.07408 3.16193 5.918 2.31802C6.76191 1.47411 7.9065 1 9.09998 1C10.2935 1 11.438 1.47411 12.282 2.31802C13.1259 3.16193 13.6 4.30653 13.6 5.5V9.1" stroke="white" stroke-width="2" stroke-linecap="round" stroke-linejoin="round"/>
</svg>
