<svg width="12" height="20" viewBox="0 0 12 20" fill="none" xmlns="http://www.w3.org/2000/svg">
<path d="M12 1.4V18.6C11.999 18.971 11.8436 19.3265 11.5678 19.5889C11.292 19.8512 10.9183 19.999 10.5283 20H1.47175C1.08174 19.999 0.707995 19.8512 0.432214 19.5889C0.156433 19.3265 0.0010405 18.971 0 18.6V1.4C0.0010405 1.029 0.156433 0.67348 0.432214 0.411144C0.707995 0.148807 1.08174 0.000989775 1.47175 0H10.5283C10.9183 0.000989775 11.292 0.148807 11.5678 0.411144C11.8436 0.67348 11.999 1.029 12 1.4ZM10.5283 3.705H1.47175V16.5125H10.5283V3.705ZM3.55059 1.9325C3.55059 2.11815 3.62812 2.2962 3.76612 2.42747C3.90413 2.55875 4.0913 2.6325 4.28647 2.6325H7.71616C7.91133 2.6325 8.0985 2.55875 8.2365 2.42747C8.37451 2.2962 8.45204 2.11815 8.45204 1.9325C8.45204 1.74685 8.37451 1.5688 8.2365 1.43753C8.0985 1.30625 7.91133 1.2325 7.71616 1.2325H4.28647C4.0913 1.2325 3.90413 1.30625 3.76612 1.43753C3.62812 1.5688 3.55059 1.74685 3.55059 1.9325ZM6.73456 18.2562C6.73456 18.1183 6.69159 17.9835 6.61108 17.8689C6.53056 17.7542 6.41612 17.6648 6.28222 17.612C6.14831 17.5591 6.00095 17.5452 5.85875 17.5721C5.71655 17.5989 5.58589 17.6652 5.4833 17.7626C5.3807 17.86 5.31076 17.9842 5.28232 18.1194C5.25388 18.2546 5.26821 18.3948 5.32351 18.5223C5.3788 18.6498 5.47258 18.7588 5.59299 18.8356C5.7134 18.9124 5.85503 18.9535 6 18.9538C6.0964 18.9539 6.19189 18.936 6.281 18.901C6.37012 18.866 6.45111 18.8147 6.51933 18.7499C6.58756 18.6851 6.64169 18.6082 6.67862 18.5235C6.71555 18.4388 6.73456 18.348 6.73456 18.2562Z" fill="#1E1E1E"/>
</svg>
