<svg width="20" height="20" viewBox="0 0 20 20" fill="none" xmlns="http://www.w3.org/2000/svg">
<path fill-rule="evenodd" clip-rule="evenodd" d="M20 2.72727C20 1.22105 18.779 0 17.2727 0H2.72727C1.22105 0 0 1.22105 0 2.72727V17.2727C0 18.779 1.22105 20 2.72727 20H17.2727C18.779 20 20 18.779 20 17.2727V2.72727ZM18.1818 2.72727C18.1818 2.2252 17.7748 1.81818 17.2727 1.81818H2.72727C2.2252 1.81818 1.81818 2.2252 1.81818 2.72727V17.2727C1.81818 17.7748 2.2252 18.1818 2.72727 18.1818H17.2727C17.7748 18.1818 18.1818 17.7748 18.1818 17.2727V2.72727Z" fill="#1F1F1F"/>
<path d="M3.46068 15.0192L7.38381 7.8268C7.72838 7.1951 8.63545 7.1951 8.98 7.8268L11.8605 13.1078L12.8472 11.3813C13.1962 10.7705 14.0767 10.7705 14.4257 11.3813L16.4956 15.0035C16.8419 15.6095 16.4043 16.3636 15.7063 16.3636H4.25876C3.56871 16.3636 3.13024 15.625 3.46068 15.0192Z" fill="#1F1F1F"/>
<path d="M15.4545 6.36359C15.4545 7.36775 14.6405 8.18177 13.6363 8.18177C12.6321 8.18177 11.8181 7.36775 11.8181 6.36359C11.8181 5.35944 12.6321 4.54541 13.6363 4.54541C14.6405 4.54541 15.4545 5.35944 15.4545 6.36359Z" fill="#1F1F1F"/>
</svg>
