<svg width="50" height="50" viewBox="0 0 50 50" fill="none" xmlns="http://www.w3.org/2000/svg">
<path d="M46.4286 28.5714H28.5714V46.4286C28.5714 48.3929 26.9643 50 25 50C23.0357 50 21.4286 48.3929 21.4286 46.4286V28.5714H3.57143C1.60714 28.5714 0 26.9643 0 25C0 23.0357 1.60714 21.4286 3.57143 21.4286H21.4286V3.57143C21.4286 1.60714 23.0357 0 25 0C26.9643 0 28.5714 1.60714 28.5714 3.57143V21.4286H46.4286C48.3929 21.4286 50 23.0357 50 25C50 26.9643 48.3929 28.5714 46.4286 28.5714Z" fill="#52C1E4"/>
</svg>
