<svg width="20" height="20" viewBox="0 0 20 20" fill="none" xmlns="http://www.w3.org/2000/svg">
<path d="M17.5405 3.91895L16.1134 4.98921C15.7766 5.24183 15.3669 5.3784 14.9458 5.3784H11.6783C11.097 5.3784 10.5654 5.70688 10.3055 6.22688C9.98459 6.8686 10.1511 7.64698 10.7063 8.10134L12.6523 9.69341C14.1836 10.9464 14.9761 12.8897 14.7577 14.8563L14.7126 15.2615C14.6521 15.8064 14.5342 16.3432 14.3608 16.8633L14.1351 17.5405" stroke="#1E1E1E" stroke-width="2"/>
<path d="M1 8.29741L4.15056 7.77232C5.46761 7.55281 6.60944 8.69467 6.38992 10.0117L6.25905 10.797C6.02473 12.2029 6.73476 13.5973 8.00961 14.2346C9.03038 14.7451 9.55977 15.896 9.28296 17.0031L8.78373 19" stroke="#1E1E1E" stroke-width="2"/>
<path d="M10.2433 18.5134C15.0795 18.5134 19 14.5929 19 9.7567C19 4.92051 15.0795 1 10.2433 1C5.40708 1 1.48657 4.92051 1.48657 9.7567C1.48657 14.5929 5.40708 18.5134 10.2433 18.5134Z" stroke="#1E1E1E" stroke-width="2"/>
</svg>
