<svg width="22" height="21" viewBox="0 0 22 21" fill="none" xmlns="http://www.w3.org/2000/svg">
<path d="M1.56799 1L20.4316 19.8636M8.74065 8.24534C8.19293 8.81121 7.85586 9.5821 7.85586 10.4318C7.85586 12.1682 9.26348 13.5757 10.9998 13.5757C11.8617 13.5757 12.6427 13.2289 13.2106 12.6671M5.23592 4.82213C3.24549 6.13545 1.72941 8.10942 1 10.4318C2.33539 14.6836 6.30755 17.7676 11 17.7676C13.0843 17.7676 15.0265 17.1592 16.6586 16.1102M9.9518 3.14772C10.2966 3.11349 10.6463 3.09596 11 3.09596C15.6925 3.09596 19.6647 6.18006 21 10.4318C20.7058 11.3687 20.2835 12.2488 19.7537 13.0517" stroke="#717171" stroke-width="2" stroke-linecap="round" stroke-linejoin="round"/>
</svg>
