<svg width="134" height="132" viewBox="0 0 134 132" fill="none" xmlns="http://www.w3.org/2000/svg">
<path d="M8.71385 0.647112C2.99919 2.67694 0.0405296 7.02076 0 13.3132C0 15.8708 0.324236 17.4541 2.10754 23.2594C6.72791 38.1177 10.6593 51.5957 15.6849 69.7423C30.3161 122.477 29.8703 120.975 30.7214 122.761C31.1267 123.573 32.3831 125.278 33.5585 126.577C39.1921 132.626 48.3518 133.073 54.6744 127.592C57.5925 125.075 58.3626 123.452 66.5901 101.408C67.198 99.7432 68.3734 96.6578 69.1839 94.5874C69.954 92.517 70.6835 90.4872 70.7241 90.1218C70.8051 89.7564 71.0888 88.9851 71.332 88.4167C71.6157 87.8484 72.5479 85.4938 73.399 83.1392C74.2501 80.7846 75.1013 78.8766 75.2634 78.8766C75.4255 78.8766 75.7497 79.5261 76.0334 80.2974C76.3171 81.0688 77.452 84.1947 78.6273 87.1988C79.7622 90.203 81.6265 95.2369 82.8019 98.3629C84.9905 104.249 85.4363 105.508 88.6381 113.993C91.6373 121.949 92.6911 123.939 94.9607 126.374C100.675 132.423 109.511 133.073 115.752 127.958C116.968 126.943 118.508 125.238 119.157 124.182C120.17 122.558 122.359 117.362 122.642 115.901C122.723 115.657 122.886 115.129 123.048 114.804C123.169 114.48 124.264 111.435 125.479 108.106C126.695 104.737 129.046 98.2005 130.748 93.5725C132.451 88.9445 133.829 84.966 133.829 84.8036C133.829 84.6007 132.653 84.3165 131.194 84.1541C128.195 83.8293 125.844 82.6926 122.116 79.8103C118.995 77.3339 116.482 74.1268 114.131 69.58C113.118 67.6313 112.105 66.1699 111.943 66.3322C111.74 66.5352 109.632 72.7871 107.241 80.1756C104.85 87.6048 102.742 93.6943 102.621 93.6943C102.459 93.6943 101.567 91.2585 100.635 88.2949C99.6622 85.372 96.9062 76.8873 94.5149 69.5394C92.0831 62.1508 89.4487 53.9503 88.6381 51.2709C86.409 44.0042 84.8689 41.812 80.7349 39.9851C77.4114 38.5236 71.0888 39.0514 69.0218 40.9594C68.576 41.3654 68.0491 41.7308 67.8465 41.7308C66.8738 41.7308 64.5636 45.0597 63.5909 47.8608C61.8076 52.773 52.9316 78.7142 50.4188 86.2651C49.1623 90.1218 48.0275 93.2883 47.8654 93.2883C47.7438 93.2883 46.7711 89.391 45.6768 84.6819C43.4882 74.8575 38.9894 56.8327 32.7884 32.7995C30.4782 23.7465 28.2086 14.8965 27.8033 13.1508C26.9522 9.53774 24.8041 4.95034 24.034 5.11273C23.7503 5.15332 23.6287 5.07213 23.7503 4.86915C23.8719 4.66617 23.3856 3.97602 22.6965 3.32648C22.0075 2.67694 21.5617 2.43336 21.7238 2.75813C21.886 3.0829 21.6833 2.96111 21.278 2.51455C19.9 0.890691 17.9141 0.200551 14.2664 0.0381646C11.6725 -0.0836249 10.2945 0.0787611 8.71385 0.647112Z" fill="#52C1E4"/>
</svg>
