<svg width="344" height="132" viewBox="0 0 344 132" fill="none" xmlns="http://www.w3.org/2000/svg">
<path d="M8.71385 0.647112C2.99919 2.67694 0.0405296 7.02076 0 13.3132C0 15.8708 0.324236 17.4541 2.10754 23.2594C6.72791 38.1177 10.6593 51.5957 15.6849 69.7423C30.3161 122.477 29.8703 120.975 30.7214 122.761C31.1267 123.573 32.3831 125.278 33.5585 126.577C39.1921 132.626 48.3518 133.073 54.6744 127.592C57.5925 125.075 58.3626 123.452 66.5901 101.408C67.198 99.7432 68.3734 96.6578 69.1839 94.5874C69.954 92.517 70.6835 90.4872 70.7241 90.1218C70.8051 89.7564 71.0888 88.9851 71.332 88.4167C71.6157 87.8484 72.5479 85.4938 73.399 83.1392C74.2501 80.7846 75.1013 78.8766 75.2634 78.8766C75.4255 78.8766 75.7497 79.5261 76.0334 80.2974C76.3171 81.0688 77.452 84.1947 78.6273 87.1988C79.7622 90.203 81.6265 95.2369 82.8019 98.3629C84.9905 104.249 85.4363 105.508 88.6381 113.993C91.6373 121.949 92.6911 123.939 94.9607 126.374C100.675 132.423 109.511 133.073 115.752 127.958C116.968 126.943 118.508 125.238 119.157 124.182C120.17 122.558 122.359 117.362 122.642 115.901C122.723 115.657 122.886 115.129 123.048 114.804C123.169 114.48 124.264 111.435 125.479 108.106C126.695 104.737 129.046 98.2005 130.748 93.5725C132.451 88.9445 133.829 84.966 133.829 84.8036C133.829 84.6007 132.653 84.3165 131.194 84.1541C128.195 83.8293 125.844 82.6926 122.116 79.8103C118.995 77.3339 116.482 74.1268 114.131 69.58C113.118 67.6313 112.105 66.1699 111.943 66.3322C111.74 66.5352 109.632 72.7871 107.241 80.1756C104.85 87.6048 102.742 93.6943 102.621 93.6943C102.459 93.6943 101.567 91.2585 100.635 88.2949C99.6622 85.372 96.9062 76.8873 94.5149 69.5394C92.0831 62.1508 89.4487 53.9503 88.6381 51.2709C86.409 44.0042 84.8689 41.812 80.7349 39.9851C77.4114 38.5236 71.0888 39.0514 69.0218 40.9594C68.576 41.3654 68.0491 41.7308 67.8465 41.7308C66.8738 41.7308 64.5636 45.0597 63.5909 47.8608C61.8076 52.773 52.9316 78.7142 50.4188 86.2651C49.1623 90.1218 48.0275 93.2883 47.8654 93.2883C47.7438 93.2883 46.7711 89.391 45.6768 84.6819C43.4882 74.8575 38.9894 56.8327 32.7884 32.7995C30.4782 23.7465 28.2086 14.8965 27.8033 13.1508C26.9522 9.53774 24.8041 4.95034 24.034 5.11273C23.7503 5.15332 23.6287 5.07213 23.7503 4.86915C23.8719 4.66617 23.3856 3.97602 22.6965 3.32648C22.0075 2.67694 21.5617 2.43336 21.7238 2.75813C21.886 3.0829 21.6833 2.96111 21.278 2.51455C19.9 0.890691 17.9141 0.200551 14.2664 0.0381646C11.6725 -0.0836249 10.2945 0.0787611 8.71385 0.647112Z" fill="#52C1E4"/>
<path d="M261.497 2.39238C257.322 3.52908 254.12 6.41144 252.458 10.4711L251.567 12.7039V67.1032V121.502L253.026 124.101C254.363 126.577 257.484 129.784 258.7 129.987C259.024 130.028 259.713 130.312 260.24 130.596C262.875 132.058 268.63 131.367 271.994 129.256C274.304 127.754 277.222 124.141 276.695 123.37C276.574 123.167 276.736 122.923 276.979 122.842C277.384 122.68 277.546 117.727 277.708 100.149L277.911 77.6583H291.083C303.08 77.6583 304.458 77.5771 306.403 76.8869C307.619 76.4404 309.119 75.5879 309.767 74.9789C310.416 74.37 310.943 73.964 310.943 74.0858C310.943 74.167 311.388 73.7204 311.956 73.0709C314.955 69.4984 315.725 63.7337 313.699 59.5928C312.28 56.6699 310.74 55.0054 308.268 53.6252L306.282 52.4885L292.096 52.2855L277.911 52.0825L277.789 39.8224L277.668 27.5622L305.958 27.4404C333.963 27.3186 334.247 27.3186 336.152 26.4255C341.867 23.7867 344.906 17.4537 343.245 11.6484C342.475 9.05021 340.286 5.43712 339.719 5.80249C339.475 5.96487 339.354 5.84309 339.394 5.55891C339.516 5.03116 335.706 2.67656 335.22 3.00133C335.058 3.08252 334.855 2.92014 334.774 2.67656C334.612 2.27059 327.114 2.1488 298.743 2.06761C276.938 2.02701 262.348 2.1488 261.497 2.39238Z" fill="#52C1E4"/>
<path d="M167.873 10.8366C161.145 12.2575 155.552 19.9708 154.701 28.9833C154.377 32.1092 154.985 38.2393 155.917 41.9335C157.619 48.632 162.645 55.2086 167.063 56.5077C168.238 56.8731 169.9 57.1572 170.71 57.1572C177.479 57.1572 184.004 48.9973 185.868 38.2799C186.679 33.733 186.679 31.0943 185.909 26.7099C184.734 20.1332 180.802 14.0843 176.222 11.9327C173.953 10.8366 170.102 10.3495 167.873 10.8366Z" fill="#52C1E4"/>
<path d="M210.997 23.8267C205.12 25.3288 199.77 31.0935 197.257 38.6038C195.717 43.2724 195.15 49.849 195.96 54.3553C197.501 63.2053 201.959 67.7521 208.565 67.2244C211.929 66.9402 214.847 65.4381 217.846 62.5152C223.885 56.5881 227.492 48.1034 227.492 39.7811C227.492 32.3926 224.899 27.115 220.035 24.598C218.171 23.6643 213.307 23.2177 210.997 23.8267Z" fill="#52C1E4"/>
<path d="M124.628 33.0424C120.981 34.3821 117.819 38.4418 116.158 43.9629C115.063 47.4948 115.185 54.6398 116.36 59.1866C117.779 64.7483 120.089 69.0515 123.453 72.421C125.642 74.6133 126.898 75.5064 128.681 76.1559C135.247 78.6323 140.921 75.9123 144.164 68.7674C146.15 64.4641 146.595 62.0689 146.595 55.9389C146.595 49.5652 146.15 47.3324 143.88 42.6232C142.056 38.7259 138.814 35.2346 135.652 33.6108C133.099 32.3523 127.344 32.0275 124.628 33.0424Z" fill="#52C1E4"/>
<path d="M236.004 63.0845C232.275 64.4242 229.235 66.9412 226.682 70.7979C224.007 74.7763 223.196 77.2527 223.196 81.5154C223.196 84.4383 223.358 85.2502 224.209 86.7929C225.344 88.7821 227.209 90.2436 229.478 90.8526C232.761 91.7457 239.003 88.498 242.61 84.0729C245.852 80.0133 248.081 73.6802 247.554 69.783C246.825 64.343 241.313 61.1359 236.004 63.0845Z" fill="#52C1E4"/>
<path d="M172.818 64.2617C171.643 64.5458 169.333 65.439 167.63 66.2509C164.104 67.9154 160.173 71.6502 154.701 78.4298C151.135 82.8549 147.203 86.4274 142.056 89.9187C140.192 91.1771 137.801 93.1258 136.787 94.2625C134.599 96.6983 132.41 101.083 131.802 104.209C130.019 113.708 134.842 124.182 142.948 128.485C149.919 132.18 154.823 132.464 167.468 130.028C177.925 127.998 181.694 127.958 189.354 129.825C192.353 130.515 196.325 131.286 198.19 131.449C213.267 133.032 225.831 122.924 225.831 109.283C225.831 100.677 222.426 94.6684 214.361 89.1879C208.646 85.2907 206.741 83.545 200.662 76.4C193.61 68.1589 190.529 65.8449 184.612 64.3023C181.694 63.5309 175.898 63.5309 172.818 64.2617Z" fill="#52C1E4"/>
</svg>
