<svg width="155" height="49" viewBox="0 0 155 49" fill="none" xmlns="http://www.w3.org/2000/svg">
<path d="M2.63277 0.196622C0.906163 0.813533 0.0122454 2.13372 0 4.04614C0 4.82345 0.0979635 5.30464 0.636763 7.069C2.03274 11.5848 3.22055 15.6811 4.73899 21.1963C9.15959 37.2236 9.02489 36.7671 9.28204 37.31C9.4045 37.5567 9.78411 38.0749 10.1392 38.4697C11.8413 40.3081 14.6088 40.4439 16.5191 38.7782C17.4008 38.0132 17.6824 37.4087 20.1193 30.8201C20.3029 30.3142 20.6581 29.3765 20.903 28.7472C21.1356 28.118 21.3561 27.5011 21.3683 27.39C21.3928 27.279 21.4785 27.0446 21.552 26.8718C21.6377 26.6991 21.9193 25.9835 22.1765 25.2679C22.4336 24.5522 22.6908 23.9723 22.7398 23.9723C22.7888 23.9723 22.8867 24.1698 22.9724 24.4042C23.0582 24.6386 23.401 25.5887 23.7562 26.5017C24.099 27.4147 24.6623 28.9446 25.0174 29.8947C25.6787 31.6837 25.8134 32.0662 26.7808 34.6449C27.6869 37.0632 28.0053 37.6678 28.6911 38.4081C30.4177 40.2464 33.0872 40.4439 34.973 38.8892C35.3403 38.5808 35.8057 38.0626 36.0016 37.7418C36.3077 37.2483 36.969 35.669 37.0547 35.2248C37.0792 35.1508 37.1282 34.9904 37.1772 34.8917C37.2139 34.793 37.5445 33.8676 37.9119 32.8559C38.2793 31.8318 39.0507 29.6973 39.6262 28.1057C40.2018 26.514 40.6549 25.2062 40.6426 25.2062C40.6304 25.1938 40.2875 25.0951 39.8834 24.9717C37.7405 24.3302 35.9894 22.7755 34.6546 20.3326C34.1036 19.3332 34.0791 19.2962 33.9566 19.6046C33.8954 19.7897 33.2219 21.8502 32.4627 24.2068C31.7034 26.551 31.0422 28.4758 31.0055 28.4758C30.9565 28.4758 30.6871 27.7355 30.4054 26.8348C30.1115 25.9465 29.2789 23.3678 28.5564 21.1346C27.8216 18.889 27.0257 16.3967 26.7808 15.5824C26.1073 13.3738 25.642 12.7076 24.3929 12.1523C23.3888 11.7082 21.4785 11.8686 20.854 12.4485C20.7193 12.5718 20.5601 12.6829 20.4989 12.6829C20.205 12.6829 19.507 13.6946 19.2131 14.546C18.6743 16.0389 15.9925 23.923 15.2333 26.2179C14.8537 27.39 14.5108 28.3524 14.4619 28.3524C14.4251 28.3524 14.1312 27.1679 13.8006 25.7244C13.1394 22.7509 11.7801 17.2727 9.90656 9.96848C9.20857 7.21706 8.52283 4.52733 8.40037 3.99679C8.14322 2.89869 7.49421 1.50447 7.26155 1.55383C7.17583 1.56616 7.13909 1.54149 7.17583 1.4798C7.21257 1.4181 7.06562 1.20836 6.85745 1.01094C6.64927 0.813533 6.51458 0.739503 6.56356 0.838209C6.61254 0.936915 6.55131 0.8999 6.42886 0.76418C6.01251 0.270652 5.41249 0.060902 4.3104 0.0115491C3.52669 -0.0254655 3.11034 0.0238874 2.63277 0.196622Z" fill="white"/>
<path d="M79.0076 0.727184C77.7463 1.07265 76.7789 1.94867 76.2768 3.18249L76.0074 3.86109V20.3943V36.9275L76.4483 37.7171C76.8524 38.4698 77.7953 39.4445 78.1626 39.5062C78.2606 39.5185 78.4688 39.6049 78.628 39.6913C79.1178 39.9627 80.2321 39.9997 81.0158 39.7776C82.2281 39.4198 83.0118 38.7906 83.5629 37.7295L83.8445 37.1743L83.9058 30.3882L83.967 23.6022H87.9468C91.5714 23.6022 91.9877 23.5775 92.5755 23.3678C92.9429 23.2321 93.396 22.973 93.5919 22.7879C93.7878 22.6028 93.947 22.4794 93.947 22.5165C93.947 22.5411 94.0817 22.4054 94.2532 22.208C95.1593 21.1222 95.392 19.3702 94.7797 18.1117C94.3511 17.2234 93.8858 16.7175 93.1388 16.298L92.5388 15.9525L88.2529 15.8908L83.967 15.8292L83.9302 12.103L83.8935 8.37687L92.4408 8.33986C100.902 8.30285 100.988 8.30285 101.564 8.0314C103.29 7.22942 104.209 5.30466 103.707 3.5403C103.474 2.75065 102.813 1.65255 102.641 1.76359C102.568 1.81295 102.531 1.77593 102.543 1.68956C102.58 1.52917 101.429 0.813552 101.282 0.912257C101.233 0.936934 101.172 0.887581 101.147 0.813552C101.098 0.69017 98.8329 0.653155 90.2611 0.628479C83.6731 0.61614 79.2647 0.653155 79.0076 0.727184Z" fill="white"/>
<path d="M50.7206 3.29353C48.6878 3.72537 46.9979 6.06963 46.7408 8.80871C46.6428 9.75875 46.8265 11.6218 47.1082 12.7446C47.6225 14.7804 49.1409 16.7792 50.4756 17.174C50.8308 17.2851 51.3328 17.3714 51.5777 17.3714C53.6227 17.3714 55.5942 14.8914 56.1575 11.6342C56.4024 10.2523 56.4024 9.4503 56.1698 8.11777C55.8147 6.11898 54.6269 4.28059 53.2431 3.62666C52.5574 3.29353 51.3941 3.14547 50.7206 3.29353Z" fill="white"/>
<path d="M63.7498 7.24173C61.9742 7.69824 60.3578 9.45027 59.5986 11.7328C59.1332 13.1517 58.9618 15.1505 59.2067 16.5201C59.672 19.2098 61.019 20.5917 63.0151 20.4313C64.0314 20.3449 64.9131 19.8884 65.8193 19C67.6438 17.1987 68.7337 14.62 68.7337 12.0906C68.7337 9.84509 67.95 8.24112 66.4805 7.47615C65.9172 7.19237 64.4478 7.05665 63.7498 7.24173Z" fill="white"/>
<path d="M37.6547 10.0425C36.5526 10.4497 35.5975 11.6835 35.0954 13.3615C34.7648 14.4349 34.8015 16.6065 35.1566 17.9883C35.5852 19.6787 36.2832 20.9865 37.2996 22.0106C37.9608 22.6769 38.3404 22.9483 38.8792 23.1457C40.863 23.8983 42.5774 23.0717 43.557 20.9001C44.157 19.5923 44.2917 18.8643 44.2917 17.0013C44.2917 15.0642 44.157 14.3856 43.4713 12.9543C42.908 11.7575 41.9284 10.6718 40.9732 10.2029C40.214 9.83277 38.4751 9.74641 37.6547 10.0425Z" fill="white"/>
<path d="M71.3052 19.1728C70.1786 19.58 69.2602 20.3449 68.4888 21.5171C67.6806 22.7262 67.4357 23.4788 67.4357 24.7744C67.4357 25.6627 67.4847 25.9095 67.7418 26.3783C68.0847 26.9829 68.648 27.4271 69.3337 27.6121C70.3256 27.8836 72.2114 26.8965 73.3012 25.5517C74.2809 24.3178 74.9544 22.3931 74.7952 21.2086C74.5748 19.5553 72.9094 18.5806 71.3052 19.1728Z" fill="white"/>
<path d="M52.2513 19.5306C50.1941 20.0488 49.0798 20.9248 46.8021 23.7749C45.7612 25.0828 44.4265 26.3043 42.9203 27.3283C42.357 27.7108 41.6345 28.3031 41.3284 28.6485C40.6671 29.3888 40.0059 30.7214 39.8222 31.6714C39.2834 34.5585 40.7406 37.7418 43.1897 39.0496C45.2959 40.1724 46.7776 40.2588 50.5982 39.5185C53.7575 38.9016 54.8963 38.8892 57.2107 39.4568C58.1169 39.6666 59.3169 39.901 59.8802 39.9503C64.4355 40.4315 68.2316 37.3593 68.2316 33.2137C68.2316 30.598 67.203 28.7719 64.7662 27.1063C63.0396 25.9218 62.464 25.3912 60.6272 23.2197C58.4965 20.7151 57.5658 20.0118 55.778 19.5429C54.8963 19.3085 53.133 19.3085 52.2513 19.5306Z" fill="white"/>
<path d="M111.298 40.612C110.794 40.612 110.356 40.426 109.984 40.054C109.624 39.694 109.444 39.262 109.444 38.758C109.444 38.242 109.624 37.804 109.984 37.444C110.356 37.072 110.794 36.886 111.298 36.886C111.814 36.886 112.252 37.072 112.612 37.444C112.972 37.804 113.152 38.242 113.152 38.758C113.152 39.262 112.972 39.694 112.612 40.054C112.252 40.426 111.814 40.612 111.298 40.612ZM119.811 40.27C118.275 40.27 117.081 39.862 116.229 39.046C115.389 38.23 114.969 37.078 114.969 35.59C114.969 34.582 115.167 33.694 115.563 32.926C115.959 32.146 116.517 31.546 117.237 31.126C117.957 30.694 118.791 30.478 119.739 30.478C120.183 30.478 120.645 30.532 121.125 30.64C121.617 30.736 121.995 30.85 122.259 30.982L121.773 33.124C121.497 32.992 121.191 32.89 120.855 32.818C120.531 32.734 120.225 32.692 119.937 32.692C119.193 32.692 118.593 32.944 118.137 33.448C117.693 33.952 117.471 34.618 117.471 35.446C117.471 36.286 117.699 36.934 118.155 37.39C118.623 37.846 119.283 38.074 120.135 38.074C120.699 38.074 121.305 37.966 121.953 37.75L122.331 39.802C121.551 40.114 120.711 40.27 119.811 40.27ZM128.336 40.27C127.4 40.27 126.572 40.066 125.852 39.658C125.144 39.25 124.592 38.68 124.196 37.948C123.8 37.204 123.602 36.346 123.602 35.374C123.602 34.402 123.794 33.55 124.178 32.818C124.574 32.074 125.126 31.498 125.834 31.09C126.554 30.682 127.382 30.478 128.318 30.478C129.254 30.478 130.076 30.682 130.784 31.09C131.504 31.486 132.056 32.05 132.44 32.782C132.836 33.514 133.034 34.36 133.034 35.32C133.034 36.292 132.836 37.156 132.44 37.912C132.056 38.656 131.504 39.238 130.784 39.658C130.076 40.066 129.26 40.27 128.336 40.27ZM128.318 38.074C128.966 38.074 129.482 37.828 129.866 37.336C130.262 36.832 130.46 36.172 130.46 35.356C130.46 34.54 130.262 33.892 129.866 33.412C129.482 32.92 128.966 32.674 128.318 32.674C127.67 32.674 127.148 32.92 126.752 33.412C126.368 33.892 126.176 34.54 126.176 35.356C126.176 36.172 126.368 36.832 126.752 37.336C127.148 37.828 127.67 38.074 128.318 38.074ZM134.915 30.73H137.399V32.17C138.131 31.042 139.121 30.478 140.369 30.478C141.077 30.478 141.677 30.646 142.169 30.982C142.673 31.306 143.039 31.774 143.267 32.386C143.687 31.726 144.155 31.246 144.671 30.946C145.199 30.634 145.799 30.478 146.471 30.478C147.467 30.478 148.241 30.778 148.793 31.378C149.357 31.966 149.639 32.788 149.639 33.844V40H147.101V34.24C147.101 33.76 146.981 33.388 146.741 33.124C146.513 32.848 146.201 32.71 145.805 32.71C145.313 32.71 144.857 32.914 144.437 33.322C144.017 33.73 143.705 34.252 143.501 34.888V40H140.963V34.24C140.963 33.772 140.843 33.4 140.603 33.124C140.363 32.848 140.045 32.71 139.649 32.71C139.205 32.71 138.785 32.878 138.389 33.214C138.005 33.538 137.693 34 137.453 34.6V40H134.915V30.73Z" fill="white"/>
</svg>
