<svg width="613" height="234" viewBox="0 0 613 234" fill="none" xmlns="http://www.w3.org/2000/svg">
<g filter="url(#filter0_d_571_172)">
<path d="M502.44 213.7C501.04 213.7 499.823 213.183 498.79 212.15C497.79 211.15 497.29 209.95 497.29 208.55C497.29 207.117 497.79 205.9 498.79 204.9C499.823 203.867 501.04 203.35 502.44 203.35C503.873 203.35 505.09 203.867 506.09 204.9C507.09 205.9 507.59 207.117 507.59 208.55C507.59 209.95 507.09 211.15 506.09 212.15C505.09 213.183 503.873 213.7 502.44 213.7ZM526.087 212.75C521.82 212.75 518.504 211.617 516.137 209.35C513.804 207.083 512.637 203.883 512.637 199.75C512.637 196.95 513.187 194.483 514.287 192.35C515.387 190.183 516.937 188.517 518.937 187.35C520.937 186.15 523.254 185.55 525.887 185.55C527.12 185.55 528.404 185.7 529.737 186C531.104 186.267 532.154 186.583 532.887 186.95L531.537 192.9C530.77 192.533 529.92 192.25 528.987 192.05C528.087 191.817 527.237 191.7 526.437 191.7C524.37 191.7 522.704 192.4 521.437 193.8C520.204 195.2 519.587 197.05 519.587 199.35C519.587 201.683 520.22 203.483 521.487 204.75C522.787 206.017 524.62 206.65 526.987 206.65C528.554 206.65 530.237 206.35 532.037 205.75L533.087 211.45C530.92 212.317 528.587 212.75 526.087 212.75ZM549.766 212.75C547.166 212.75 544.866 212.183 542.866 211.05C540.9 209.917 539.366 208.333 538.266 206.3C537.166 204.233 536.616 201.85 536.616 199.15C536.616 196.45 537.15 194.083 538.216 192.05C539.316 189.983 540.85 188.383 542.816 187.25C544.816 186.117 547.116 185.55 549.716 185.55C552.316 185.55 554.6 186.117 556.566 187.25C558.566 188.35 560.1 189.917 561.166 191.95C562.266 193.983 562.816 196.333 562.816 199C562.816 201.7 562.266 204.1 561.166 206.2C560.1 208.267 558.566 209.883 556.566 211.05C554.6 212.183 552.333 212.75 549.766 212.75ZM549.716 206.65C551.516 206.65 552.95 205.967 554.016 204.6C555.116 203.2 555.666 201.367 555.666 199.1C555.666 196.833 555.116 195.033 554.016 193.7C552.95 192.333 551.516 191.65 549.716 191.65C547.916 191.65 546.466 192.333 545.366 193.7C544.3 195.033 543.766 196.833 543.766 199.1C543.766 201.367 544.3 203.2 545.366 204.6C546.466 205.967 547.916 206.65 549.716 206.65ZM568.042 186.25H574.942V190.25C576.975 187.117 579.725 185.55 583.192 185.55C585.159 185.55 586.825 186.017 588.192 186.95C589.592 187.85 590.609 189.15 591.242 190.85C592.409 189.017 593.709 187.683 595.142 186.85C596.609 185.983 598.275 185.55 600.142 185.55C602.909 185.55 605.059 186.383 606.592 188.05C608.159 189.683 608.942 191.967 608.942 194.9V212H601.892V196C601.892 194.667 601.559 193.633 600.892 192.9C600.259 192.133 599.392 191.75 598.292 191.75C596.925 191.75 595.659 192.317 594.492 193.45C593.325 194.583 592.459 196.033 591.892 197.8V212H584.842V196C584.842 194.7 584.509 193.667 583.842 192.9C583.175 192.133 582.292 191.75 581.192 191.75C579.959 191.75 578.792 192.217 577.692 193.15C576.625 194.05 575.759 195.333 575.092 197V212H568.042V186.25Z" fill="white"/>
</g>
<path d="M12.5245 1.04259C4.31077 4.31575 0.0582536 11.3203 0 21.4671C0 25.5913 0.466029 28.1444 3.02919 37.5056C9.6701 61.4652 15.3207 83.199 22.5441 112.461C43.5737 197.498 42.9329 195.076 44.1562 197.956C44.7388 199.265 46.5446 202.015 48.234 204.11C56.3312 213.864 69.4966 214.584 78.5841 205.746C82.7784 201.687 83.8852 199.069 95.7107 163.522C96.5845 160.838 98.2738 155.863 99.4389 152.525C100.546 149.186 101.594 145.913 101.653 145.324C101.769 144.734 102.177 143.491 102.526 142.574C102.934 141.658 104.274 137.861 105.497 134.064C106.721 130.267 107.944 127.19 108.177 127.19C108.41 127.19 108.876 128.238 109.284 129.481C109.692 130.725 111.323 135.766 113.012 140.61C114.643 145.455 117.323 153.572 119.012 158.613C122.158 168.105 122.799 170.134 127.401 183.816C131.711 196.647 133.226 199.855 136.488 203.782C144.702 213.536 157.401 214.584 166.372 206.335C168.12 204.699 170.334 201.949 171.266 200.247C172.722 197.629 175.868 189.249 176.275 186.893C176.392 186.5 176.625 185.649 176.858 185.125C177.033 184.602 178.606 179.692 180.353 174.324C182.101 168.89 185.479 158.351 187.926 150.888C190.373 143.425 192.353 137.01 192.353 136.748C192.353 136.421 190.664 135.962 188.567 135.701C184.256 135.177 180.877 133.344 175.518 128.696C171.033 124.703 167.421 119.531 164.042 112.199C162.586 109.057 161.129 106.7 160.896 106.962C160.605 107.289 157.576 117.371 154.139 129.285C150.702 141.265 147.673 151.084 147.498 151.084C147.265 151.084 145.984 147.157 144.644 142.378C143.246 137.664 139.284 123.983 135.847 112.134C132.352 100.219 128.566 86.9958 127.401 82.6753C124.197 70.9573 121.983 67.4223 116.041 64.4765C111.264 62.1198 102.177 62.9708 99.2059 66.0476C98.5651 66.7022 97.8078 67.2914 97.5165 67.2914C96.1184 67.2914 92.798 72.6594 91.3999 77.1764C88.8367 85.0974 76.0792 126.928 72.4675 139.105C70.6616 145.324 69.0305 150.43 68.7975 150.43C68.6227 150.43 67.2247 144.145 65.6518 136.552C62.5061 120.709 56.04 91.6437 47.1272 52.8895C43.8067 38.2912 40.5445 24.0202 39.962 21.2053C38.7386 15.379 35.6512 7.98169 34.5444 8.24355C34.1366 8.30901 33.9619 8.17809 34.1366 7.85077C34.3114 7.52345 33.6123 6.41058 32.622 5.36316C31.6317 4.31575 30.9909 3.92297 31.2239 4.44669C31.4569 4.97038 31.1657 4.774 30.5831 4.05389C28.6025 1.43536 25.7481 0.322495 20.5053 0.0606384C16.777 -0.135742 14.7964 0.126099 12.5245 1.04259Z" fill="white"/>
<path d="M375.852 3.85757C369.852 5.69054 365.25 10.3384 362.862 16.8848L361.58 20.4852V108.206V195.927L363.677 200.116C365.6 204.11 370.085 209.281 371.833 209.609C372.299 209.674 373.289 210.132 374.046 210.591C377.833 212.947 386.105 211.834 390.94 208.43C394.26 206.008 398.455 200.182 397.697 198.938C397.523 198.611 397.756 198.218 398.105 198.087C398.688 197.825 398.921 189.839 399.154 161.493L399.445 125.226H418.377C435.62 125.226 437.601 125.096 440.397 123.983C442.145 123.263 444.3 121.888 445.232 120.906C446.164 119.924 446.922 119.269 446.922 119.466C446.922 119.597 447.562 118.877 448.378 117.829C452.689 112.068 453.796 102.773 450.883 96.0953C448.844 91.3819 446.63 88.698 443.077 86.4722L440.222 84.6392L419.834 84.3119L399.445 83.9846L399.27 64.2147L399.095 44.4448L439.756 44.2484C480.01 44.052 480.417 44.052 483.155 42.6118C491.369 38.3567 495.738 28.1444 493.35 18.7832C492.243 14.5936 489.097 8.76732 488.282 9.35649C487.932 9.61835 487.757 9.42195 487.816 8.96371C487.99 8.11269 482.515 4.31581 481.816 4.83952C481.583 4.97044 481.291 4.70859 481.175 4.31581C480.942 3.66118 470.165 3.4648 429.387 3.33386C398.047 3.2684 377.076 3.4648 375.852 3.85757Z" fill="white"/>
<path d="M241.286 17.4744C231.616 19.7656 223.577 32.2036 222.354 46.7365C221.888 51.7771 222.762 61.6621 224.102 67.6192C226.548 78.4207 233.772 89.0257 240.121 91.1206C241.811 91.7097 244.199 92.168 245.364 92.168C255.092 92.168 264.471 79.0099 267.151 61.7276C268.316 54.3957 268.316 50.1406 267.209 43.0705C265.52 32.4655 259.869 22.7114 253.287 19.2419C250.024 17.4744 244.49 16.6888 241.286 17.4744Z" fill="white"/>
<path d="M303.268 38.4229C294.821 40.8451 287.132 50.1409 283.52 62.2516C281.307 69.7798 280.491 80.3849 281.656 87.6513C283.87 101.922 290.278 109.254 299.773 108.403C304.608 107.945 308.802 105.523 313.113 100.809C321.793 91.2518 326.977 77.57 326.977 64.15C326.977 52.2357 323.249 43.7255 316.259 39.6667C313.579 38.1611 306.589 37.441 303.268 38.4229Z" fill="white"/>
<path d="M179.13 53.2834C173.887 55.4437 169.343 61.9901 166.955 70.8931C165.382 76.5884 165.557 88.1099 167.246 95.4418C169.285 104.41 172.605 111.349 177.44 116.783C180.586 120.318 182.392 121.758 184.955 122.805C194.392 126.799 202.548 122.413 207.208 110.891C210.062 103.952 210.703 100.09 210.703 90.2047C210.703 79.927 210.062 76.3265 206.8 68.7328C204.179 62.4483 199.519 56.8185 194.975 54.1999C191.305 52.1706 183.033 51.6469 179.13 53.2834Z" fill="white"/>
<path d="M339.211 101.725C333.852 103.885 329.483 107.944 325.813 114.163C321.968 120.578 320.803 124.572 320.803 131.445C320.803 136.159 321.036 137.468 322.259 139.956C323.89 143.163 326.57 145.52 329.832 146.502C334.551 147.942 343.522 142.705 348.706 135.57C353.367 129.023 356.57 118.811 355.813 112.526C354.765 103.754 346.842 98.5828 339.211 101.725Z" fill="white"/>
<path d="M248.393 103.624C246.704 104.083 243.384 105.523 240.937 106.832C235.869 109.516 230.218 115.539 222.354 126.471C217.228 133.606 211.577 139.367 204.179 144.997C201.499 147.026 198.062 150.169 196.606 152.002C193.46 155.929 190.315 162.999 189.441 168.04C186.878 183.359 193.81 200.248 205.46 207.187C215.48 213.144 222.529 213.603 240.704 209.675C255.733 206.402 261.151 206.336 272.161 209.347C276.472 210.46 282.18 211.704 284.86 211.966C306.53 214.519 324.589 198.219 324.589 176.223C324.589 162.345 319.696 152.656 308.103 143.819C299.89 137.534 297.152 134.719 288.414 123.198C278.277 109.909 273.85 106.177 265.345 103.69C261.151 102.446 252.821 102.446 248.393 103.624Z" fill="white"/>
<defs>
<filter id="filter0_d_571_172" x="493.29" y="185.55" width="119.652" height="36.1504" filterUnits="userSpaceOnUse" color-interpolation-filters="sRGB">
<feFlood flood-opacity="0" result="BackgroundImageFix"/>
<feColorMatrix in="SourceAlpha" type="matrix" values="0 0 0 0 0 0 0 0 0 0 0 0 0 0 0 0 0 0 127 0" result="hardAlpha"/>
<feOffset dy="4"/>
<feGaussianBlur stdDeviation="2"/>
<feComposite in2="hardAlpha" operator="out"/>
<feColorMatrix type="matrix" values="0 0 0 0 0 0 0 0 0 0 0 0 0 0 0 0 0 0 0.25 0"/>
<feBlend mode="normal" in2="BackgroundImageFix" result="effect1_dropShadow_571_172"/>
<feBlend mode="normal" in="SourceGraphic" in2="effect1_dropShadow_571_172" result="shape"/>
</filter>
</defs>
</svg>
