<svg width="131" height="50" viewBox="0 0 131 50" fill="none" xmlns="http://www.w3.org/2000/svg">
<path d="M3.29922 0.244996C1.13554 1.01352 0.0153452 2.65817 0 5.0406C0 6.00895 0.122762 6.6084 0.79795 8.80639C2.5473 14.432 4.03579 19.535 5.93859 26.4057C11.4782 46.372 11.3094 45.8033 11.6317 46.4796C11.7851 46.787 12.2608 47.4325 12.7058 47.9244C14.8388 50.2146 18.3068 50.3837 20.7007 48.3087C21.8055 47.3557 22.0971 46.7409 25.2122 38.3947C25.4423 37.7645 25.8873 36.5963 26.1942 35.8124C26.4858 35.0285 26.762 34.26 26.7774 34.1217C26.8081 33.9833 26.9155 33.6913 27.0075 33.4761C27.115 33.2609 27.4679 32.3694 27.7901 31.4779C28.1124 30.5864 28.4346 29.864 28.496 29.864C28.5574 29.864 28.6802 30.11 28.7876 30.402C28.895 30.694 29.3247 31.8776 29.7697 33.015C30.1993 34.1524 30.9052 36.0583 31.3502 37.2419C32.1789 39.4706 32.3477 39.9471 33.5599 43.1595C34.6955 46.1722 35.0945 46.9253 35.9538 47.8476C38.1175 50.1378 41.4627 50.3837 43.8259 48.447C44.2862 48.0627 44.8693 47.4172 45.1149 47.0175C45.4985 46.4027 46.3271 44.4353 46.4346 43.882C46.4652 43.7897 46.5266 43.5899 46.588 43.4669C46.634 43.344 47.0484 42.1912 47.5087 40.9308C47.9691 39.6551 48.8591 37.1804 49.5036 35.4282C50.1481 33.6759 50.6698 32.1696 50.6698 32.1081C50.6698 32.0313 50.2248 31.9237 49.6724 31.8622C48.5368 31.7392 47.6468 31.3089 46.2351 30.2175C45.0535 29.2799 44.1021 28.0657 43.2121 26.3442C42.8284 25.6064 42.4448 25.053 42.3834 25.1145C42.3067 25.1914 41.5088 27.5584 40.6034 30.3559C39.698 33.1687 38.9001 35.4743 38.854 35.4743C38.7927 35.4743 38.4551 34.552 38.1021 33.43C37.7338 32.3233 36.6904 29.1109 35.785 26.3288C34.8643 23.5314 33.8668 20.4265 33.5599 19.4121C32.716 16.6607 32.1328 15.8307 30.5676 15.139C29.3093 14.5857 26.9155 14.7855 26.1329 15.5079C25.9641 15.6616 25.7646 15.8 25.6879 15.8C25.3196 15.8 24.4449 17.0604 24.0766 18.1209C23.4014 19.9808 20.0408 29.8025 19.0894 32.6615C18.6137 34.1217 18.1841 35.3206 18.1227 35.3206C18.0766 35.3206 17.7084 33.845 17.294 32.062C16.4654 28.3423 14.7621 21.5178 12.4143 12.4185C11.5396 8.99083 10.6803 5.64005 10.5268 4.97912C10.2046 3.61114 9.39126 1.87427 9.0997 1.93575C8.99228 1.95113 8.94625 1.92038 8.99228 1.84353C9.03832 1.76668 8.85418 1.50538 8.59331 1.25945C8.33244 1.01352 8.16364 0.921299 8.22502 1.04426C8.2864 1.16723 8.20968 1.12112 8.05623 0.95204C7.53449 0.337219 6.78258 0.0759197 5.40151 0.0144376C4.41942 -0.031674 3.89768 0.0298081 3.29922 0.244996Z" fill="#52C1E4"/>
<path d="M99.0071 0.905885C97.4266 1.33626 96.2143 2.42757 95.5852 3.96462L95.2476 4.81V25.4065V46.003L95.8 46.9868C96.3064 47.9244 97.488 49.1386 97.9483 49.2155C98.0711 49.2309 98.3319 49.3385 98.5314 49.446C99.5289 49.9994 101.708 49.7381 102.982 48.9388C103.856 48.3701 104.961 47.0021 104.762 46.7101C104.716 46.6332 104.777 46.541 104.869 46.5103C105.022 46.4488 105.084 44.5736 105.145 37.9181L105.222 29.4029H110.209C114.751 29.4029 115.273 29.3721 116.01 29.1108C116.47 28.9417 117.038 28.619 117.283 28.3884C117.529 28.1578 117.728 28.0041 117.728 28.0503C117.728 28.081 117.897 27.9119 118.112 27.666C119.247 26.3134 119.539 24.1308 118.772 22.563C118.235 21.4563 117.652 20.8261 116.715 20.3035L115.964 19.8731L110.593 19.7963L105.222 19.7194L105.176 15.0775L105.13 10.4356L115.841 10.3895C126.444 10.3434 126.552 10.3434 127.273 10.0052C129.437 9.00616 130.588 6.60836 129.958 4.41037C129.667 3.42665 128.838 2.05868 128.623 2.19701C128.531 2.25849 128.485 2.21238 128.501 2.10479C128.547 1.90497 127.104 1.01348 126.92 1.13644C126.859 1.16718 126.782 1.1057 126.751 1.01348C126.69 0.859774 123.851 0.813662 113.109 0.782921C104.854 0.76755 99.3294 0.813662 99.0071 0.905885Z" fill="#52C1E4"/>
<path d="M63.5597 4.10296C61.0124 4.64093 58.8948 7.56133 58.5725 10.9736C58.4498 12.1571 58.68 14.4781 59.0329 15.8768C59.6774 18.4129 61.5802 20.903 63.2528 21.3948C63.6978 21.5332 64.327 21.6407 64.6339 21.6407C67.1965 21.6407 69.6671 18.5513 70.373 14.4934C70.6799 12.7719 70.6799 11.7729 70.3883 10.1128C69.9433 7.62282 68.4548 5.3326 66.7208 4.51797C65.8615 4.10296 64.4037 3.91852 63.5597 4.10296Z" fill="#52C1E4"/>
<path d="M79.8871 9.02156C77.662 9.59027 75.6365 11.7729 74.6851 14.6164C74.102 16.384 73.8871 18.8741 74.194 20.5802C74.7771 23.931 76.4651 25.6525 78.9664 25.4527C80.24 25.3451 81.3449 24.7764 82.4804 23.6697C84.7669 21.4256 86.1326 18.2131 86.1326 15.0622C86.1326 12.2647 85.1505 10.2666 83.3091 9.3136C82.6032 8.96007 80.7618 8.791 79.8871 9.02156Z" fill="#52C1E4"/>
<path d="M47.1865 12.5106C45.8054 13.0179 44.6085 14.5549 43.9793 16.6453C43.565 17.9826 43.611 20.6878 44.056 22.4093C44.5931 24.515 45.4678 26.1443 46.7414 27.4201C47.5701 28.2501 48.0458 28.5882 48.721 28.8342C51.2069 29.7718 53.3552 28.7419 54.5828 26.0367C55.3348 24.4074 55.5036 23.5006 55.5036 21.1796C55.5036 18.7665 55.3348 17.9211 54.4754 16.1381C53.7849 14.6625 52.5573 13.3407 51.3604 12.7258C50.3936 12.2493 48.2146 12.1264 47.1865 12.5106Z" fill="#52C1E4"/>
<path d="M89.3551 23.8849C87.9433 24.3921 86.7924 25.3451 85.8257 26.8053C84.8129 28.3116 84.506 29.2492 84.506 30.8631C84.506 31.9698 84.5674 32.2772 84.8896 32.8612C85.3193 33.6144 86.0252 34.1677 86.8845 34.3983C88.1274 34.7365 90.4906 33.5068 91.8563 31.8314C93.0839 30.2944 93.9279 27.8966 93.7284 26.421C93.4522 24.3613 91.3653 23.1471 89.3551 23.8849Z" fill="#52C1E4"/>
<path d="M65.4319 24.3306C64.9869 24.4382 64.1122 24.7763 63.4677 25.0838C62.1327 25.7139 60.6442 27.128 58.5726 29.6949C57.2222 31.3703 55.7338 32.7229 53.7849 34.0448C53.079 34.5213 52.1737 35.2591 51.7901 35.6894C50.9614 36.6117 50.1328 38.2717 49.9026 39.4552C49.2274 43.0519 51.0535 47.0175 54.1225 48.6468C56.7619 50.0455 58.6187 50.1531 63.4064 49.2309C67.3654 48.4623 68.7925 48.447 71.6928 49.154C72.8283 49.4153 74.3321 49.7074 75.038 49.7688C80.7464 50.3683 85.5034 46.541 85.5034 41.3765C85.5034 38.118 84.2144 35.8431 81.1608 33.7681C78.9971 32.2925 78.2759 31.6316 75.9741 28.9264C73.304 25.8062 72.1378 24.9301 69.8974 24.346C68.7925 24.0539 66.5982 24.0539 65.4319 24.3306Z" fill="#52C1E4"/>
</svg>
