<svg width="28" height="20" viewBox="0 0 28 20" fill="none" xmlns="http://www.w3.org/2000/svg">
<path d="M27.6923 16.9231C27.6923 18.6223 26.3146 20 24.6154 20H3.07692C1.37769 20 0 18.6223 0 16.9231V3.07692C0 1.37769 1.37769 0 3.07692 0H24.6154C26.3146 0 27.6923 1.37769 27.6923 3.07692V16.9231Z" fill="#75AADB"/>
<path d="M0 6.15393H27.6923V13.8462H0V6.15393Z" fill="#EEEEEE"/>
<path d="M13.8462 6.15393L14.2215 8.11393L15.3185 6.44701L14.9146 8.40085L16.5654 7.28008L15.4446 8.93162L17.3992 8.52855L15.7323 9.6247L17.6923 10.0001L15.7323 10.3755L17.3992 11.4724L15.4446 11.0685L16.5654 12.7193L14.9146 11.5985L15.3185 13.5532L14.2215 11.8862L13.8462 13.8462L13.4708 11.8862L12.3746 13.5532L12.7777 11.5985L11.1262 12.7193L12.2469 11.0685L10.2931 11.4724L11.96 10.3755L10 10.0001L11.96 9.6247L10.2931 8.52855L12.2469 8.93162L11.1262 7.28008L12.7777 8.40085L12.3746 6.44701L13.4708 8.11393L13.8462 6.15393Z" fill="#FCBF49"/>
<path d="M13.8462 7.17701L14.0323 8.15008L14.1215 8.61547L14.3823 8.22008L14.9269 7.39239L14.7262 8.36239L14.63 8.82701L15.0223 8.56085L15.8423 8.0047L15.2862 8.8247L15.02 9.21701L15.4838 9.12085L16.4546 8.92085L15.6269 9.46547L15.2308 9.7247L15.6962 9.81393L16.6692 10.0001L15.6962 10.1862L15.2308 10.2755L15.6262 10.5362L16.4538 11.0809L15.4831 10.8801L15.0185 10.7839L15.2846 11.1762L15.8408 11.9955L15.0215 11.4393L14.6292 11.1732L14.7254 11.6378L14.9262 12.6085L14.3815 11.7809L14.1215 11.3847L14.0323 11.8501L13.8462 12.8232L13.66 11.8501L13.5708 11.3847L13.31 11.7809L12.7654 12.6085L12.9654 11.6378L13.0615 11.1739L12.6692 11.4401L11.8492 11.9962L12.4054 11.1762L12.6715 10.7839L12.2069 10.8801L11.2369 11.0809L12.0646 10.5362L12.46 10.2755L11.9946 10.1862L11.0231 10.0001L11.9962 9.81393L12.4615 9.7247L12.0654 9.46393L11.2377 8.91931L12.2077 9.11931L12.6715 9.21547L12.4054 8.82316L11.8485 8.00316L12.6685 8.56008L13.0608 8.82624L12.9646 8.36239L12.7646 7.39239L13.3092 8.22008L13.57 8.61624L13.6592 8.15085L13.8462 7.17701ZM13.8462 6.15393L13.4708 8.11393L12.3746 6.44701L12.7777 8.40162L11.1262 7.28085L12.2469 8.93239L10.2931 8.52931L11.96 9.62547L10 10.0001L11.96 10.3755L10.2931 11.4724L12.2469 11.0685L11.1262 12.7193L12.7777 11.5985L12.3746 13.5532L13.4708 11.8862L13.8462 13.8462L14.2215 11.8862L15.3185 13.5532L14.9146 11.5985L16.5654 12.7193L15.4446 11.0685L17.3992 11.4724L15.7323 10.3755L17.6923 10.0001L15.7323 9.6247L17.3992 8.52855L15.4446 8.93162L16.5654 7.28008L14.9146 8.40085L15.3185 6.44624L14.2215 8.11316L13.8462 6.15393Z" fill="#843511"/>
<path d="M13.8462 11.5385C14.6959 11.5385 15.3847 10.8497 15.3847 10C15.3847 9.15034 14.6959 8.46155 13.8462 8.46155C12.9965 8.46155 12.3077 9.15034 12.3077 10C12.3077 10.8497 12.9965 11.5385 13.8462 11.5385Z" fill="#FCBF49"/>
<path d="M13.8462 11.6346C12.9446 11.6346 12.2115 10.9016 12.2115 10C12.2115 9.09849 12.9446 8.36542 13.8462 8.36542C14.7477 8.36542 15.4808 9.09849 15.4808 10C15.4808 10.9016 14.7477 11.6346 13.8462 11.6346ZM13.8462 8.55773C13.0508 8.55773 12.4039 9.20465 12.4039 10C12.4039 10.7954 13.0508 11.4423 13.8462 11.4423C14.6415 11.4423 15.2885 10.7954 15.2885 10C15.2885 9.20465 14.6415 8.55773 13.8462 8.55773Z" fill="#843511"/>
<path d="M13.6931 9.82621C13.6931 9.94544 13.4923 10.0416 13.2446 10.0416C12.9962 10.0416 12.7954 9.94544 12.7954 9.82621C12.7954 9.70698 12.9962 9.61082 13.2446 9.61082C13.4923 9.61082 13.6931 9.70698 13.6931 9.82621ZM14.8877 9.80775C14.8877 9.6839 14.6831 9.58313 14.4308 9.58313C14.1785 9.58313 13.9739 9.68313 13.9739 9.80775C13.9739 9.93236 14.1785 10.0324 14.4308 10.0324C14.6839 10.0324 14.8877 9.93159 14.8877 9.80775Z" fill="#C16540"/>
<path d="M13.4331 10.6723C13.4331 10.5754 13.6223 10.4962 13.8546 10.4962C14.0877 10.4962 14.2762 10.5746 14.2762 10.6723C14.2762 10.7692 14.087 10.8485 13.8546 10.8485C13.6216 10.8485 13.4331 10.7692 13.4331 10.6723Z" fill="#ED8662"/>
</svg>
