<svg width="10" height="10" viewBox="0 0 10 10" fill="none" xmlns="http://www.w3.org/2000/svg">
<path fill-rule="evenodd" clip-rule="evenodd" d="M7.2657 4.99797L9.53169 2.73442C10.1569 2.11054 10.1569 1.09478 9.53169 0.470905C8.90569 -0.156968 7.8913 -0.156968 7.2657 0.470905L5.0001 2.73442L2.7345 0.470905C2.1093 -0.156968 1.0949 -0.156968 0.4689 0.470905C-0.1563 1.09478 -0.1563 2.11054 0.4689 2.73442L2.7345 4.99797L0.4689 7.26554C-0.1563 7.88941 -0.1563 8.90522 0.4689 9.52909C1.0949 10.157 2.1093 10.157 2.7345 9.52909L5.0001 7.26554L7.2657 9.52909C7.8913 10.157 8.90569 10.157 9.53169 9.52909C10.1569 8.90522 10.1569 7.88941 9.53169 7.26554L7.2657 4.99797Z" fill="#1E1E1E"/>
</svg>
