<svg width="50" height="50" viewBox="0 0 50 50" fill="none" xmlns="http://www.w3.org/2000/svg">
<path fill-rule="evenodd" clip-rule="evenodd" d="M28.6244 24.9968L32.2498 21.3751C33.2501 20.3769 33.2501 18.7516 32.2498 17.7534C31.2483 16.7489 29.6253 16.7489 28.6244 17.7534L24.9997 21.3751L21.3749 17.7534C20.3747 16.7489 18.7517 16.7489 17.7502 17.7534C16.7499 18.7516 16.7499 20.3769 17.7502 21.3751L21.3749 24.9968L17.7502 28.6249C16.7499 29.6231 16.7499 31.2484 17.7502 32.2466C18.7517 33.2511 20.3747 33.2511 21.3749 32.2466L24.9997 28.6249L28.6244 32.2466C29.6253 33.2511 31.2483 33.2511 32.2498 32.2466C33.2501 31.2484 33.2501 29.6231 32.2498 28.6249L28.6244 24.9968Z" fill="#CE4B4B"/>
<circle cx="25" cy="25" r="23.25" stroke="#CE4B4B" stroke-width="3.5"/>
</svg>
