<svg width="50" height="50" viewBox="0 0 50 50" fill="none" xmlns="http://www.w3.org/2000/svg">
<path d="M34.2565 20.1515C34.9377 19.4306 34.9377 18.2617 34.2565 17.5407C33.5753 16.8198 32.4712 16.8198 31.79 17.5407L21.3953 28.5429L17.9775 24.9254C17.2964 24.2045 16.192 24.2045 15.5109 24.9254C14.8297 25.6464 14.8297 26.8152 15.5109 27.5362L20.162 32.4593C20.8433 33.1802 21.9474 33.1802 22.6286 32.4593L34.2565 20.1515Z" fill="#42CE83"/>
<path fill-rule="evenodd" clip-rule="evenodd" d="M25.1335 3.37642e-07H24.8665C19.4982 -2.29182e-05 15.2911 -4.62629e-05 12.0086 0.441279C8.64877 0.893 5.99756 1.83565 3.9166 3.9166C1.83565 5.99756 0.893 8.64877 0.441279 12.0086C-4.62629e-05 15.2911 -2.29182e-05 19.4982 3.37642e-07 24.8665V25.1335C-2.29182e-05 30.5019 -4.62629e-05 34.7088 0.441279 37.9914C0.893 41.3512 1.83565 44.0026 3.9166 46.0835C5.99756 48.1644 8.64877 49.107 12.0086 49.5588C15.2911 50 19.4982 50 24.8665 50H25.1335C30.5019 50 34.7088 50 37.9914 49.5588C41.3512 49.107 44.0026 48.1644 46.0835 46.0835C48.1644 44.0026 49.107 41.3512 49.5588 37.9914C50 34.7088 50 30.5019 50 25.1335V24.8665C50 19.4982 50 15.2911 49.5588 12.0086C49.107 8.64877 48.1644 5.99756 46.0835 3.9166C44.0026 1.83565 41.3512 0.893 37.9914 0.441279C34.7088 -4.62629e-05 30.5019 -2.29182e-05 25.1335 3.37642e-07ZM6.38326 6.38326C7.70802 5.05847 9.5004 4.29826 12.4734 3.89853C15.4967 3.49207 19.4692 3.48837 25 3.48837C30.5307 3.48837 34.5033 3.49207 37.5265 3.89853C40.4995 4.29826 42.2919 5.05847 43.6167 6.38326C44.9416 7.70802 45.7019 9.5004 46.1014 12.4734C46.5079 15.4967 46.5116 19.4692 46.5116 25C46.5116 30.5307 46.5079 34.5033 46.1014 37.5265C45.7019 40.4995 44.9416 42.2919 43.6167 43.6167C42.2919 44.9416 40.4995 45.7019 37.5265 46.1014C34.5033 46.5079 30.5307 46.5116 25 46.5116C19.4692 46.5116 15.4967 46.5079 12.4734 46.1014C9.5004 45.7019 7.70802 44.9416 6.38326 43.6167C5.05847 42.2919 4.29826 40.4995 3.89853 37.5265C3.49207 34.5033 3.48837 30.5307 3.48837 25C3.48837 19.4692 3.49207 15.4967 3.89853 12.4734C4.29826 9.5004 5.05847 7.70802 6.38326 6.38326Z" fill="#42CE83"/>
</svg>
