<svg width="53" height="50" viewBox="0 0 53 50" fill="none" xmlns="http://www.w3.org/2000/svg">
<path d="M25.6143 50C19.0655 50 3.6506 49.3952 0.72882 44.3548C-2.49522 38.6089 5.86713 23.5887 8.48666 19.0524C11.1062 14.6169 20.1738 0 26.4204 0C33.4729 0 44.6563 18.8508 47.9811 25.504C52.8172 35.1814 54.2277 41.6331 51.9104 44.6573C48.0819 49.7984 29.3421 50 25.6143 50ZM26.4204 4.13306C24.6068 4.13306 18.6625 10.0806 12.2144 21.1694C5.26262 32.9637 3.4491 40.625 4.45661 42.3387C5.26262 43.75 12.5167 45.8669 25.6143 45.8669C39.3165 45.8669 47.3766 43.6492 48.4849 42.1371C49.1901 41.2298 48.5856 36.3911 44.1526 27.4194C37.503 14.1129 28.7376 4.13306 26.4204 4.13306ZM26.5211 33.0645C25.3121 33.0645 24.4053 32.1573 24.4053 30.9476V14.9194C24.4053 13.7097 25.3121 12.8024 26.5211 12.8024C27.7301 12.8024 28.6369 13.7097 28.6369 14.9194V30.8468C28.6369 32.0564 27.6294 33.0645 26.5211 33.0645ZM28.6369 38.5081C28.6369 39.6774 27.6898 40.625 26.5211 40.625C25.3524 40.625 24.4053 39.6774 24.4053 38.5081C24.4053 37.3387 25.3524 36.3911 26.5211 36.3911C27.6898 36.3911 28.6369 37.3387 28.6369 38.5081Z" fill="#FCBF49"/>
</svg>
