<svg width="20" height="20" viewBox="0 0 20 20" fill="none" xmlns="http://www.w3.org/2000/svg">
<path fill-rule="evenodd" clip-rule="evenodd" d="M7.19337 2.72727V3.25342C4.50356 4.35644 2.62433 7.97935 2.69252 11.1192L2.6925 12.8631C1.31553 14.6333 1.39655 17.2727 4.83191 17.2727H7.19337C7.19337 17.996 7.47525 18.6897 7.97703 19.2012C8.47873 19.7127 9.15923 20 9.86883 20C10.5784 20 11.2589 19.7127 11.7606 19.2012C12.2623 18.6897 12.5442 17.996 12.5442 17.2727H14.9122C18.341 17.2727 18.3907 14.6278 17.0139 12.8576L17.0522 11.1216C17.1215 7.97811 15.2386 4.35194 12.5442 3.25049V2.72727C12.5442 2.00395 12.2623 1.31026 11.7606 0.7988C11.2589 0.28734 10.5784 0 9.86883 0C9.15923 0 8.47873 0.28734 7.97703 0.7988C7.47525 1.31026 7.19337 2.00395 7.19337 2.72727ZM10.7606 2.72727C10.7606 2.72727 10.76 2.76414 10.7589 2.78246C10.4685 2.74603 10.1726 2.72727 9.87243 2.72727C9.56973 2.72727 9.27143 2.74634 8.97873 2.78335C8.97753 2.76474 8.97703 2.74603 8.97703 2.72727C8.97703 2.48617 9.07093 2.25494 9.23823 2.08445C9.40543 1.91396 9.63233 1.81818 9.86883 1.81818C10.1053 1.81818 10.3321 1.91396 10.4994 2.08445C10.6666 2.25494 10.7606 2.48617 10.7606 2.72727ZM8.97703 17.2727C8.97703 17.5138 9.07093 17.7451 9.23823 17.9156C9.40543 18.086 9.63233 18.1818 9.86883 18.1818C10.1053 18.1818 10.3321 18.086 10.4994 17.9156C10.6666 17.7451 10.7606 17.5138 10.7606 17.2727H8.97703ZM14.9122 15.4545C15.6741 15.4545 16.0851 14.5435 15.5893 13.9538C15.3483 13.6673 15.22 13.3028 15.2283 12.9286L15.269 11.0808C15.3371 7.99416 12.9011 4.54545 9.87243 4.54545C6.84438 4.54545 4.40869 7.99301 4.47571 11.0789L4.51589 12.9289C4.52402 13.303 4.39566 13.6674 4.15479 13.9538C3.65894 14.5435 4.06998 15.4545 4.83191 15.4545H14.9122ZM14.8766 1.20202C15.1912 0.74813 15.8143 0.63524 16.2682 0.94988C17.4159 1.74546 18.7923 3.65348 19.5438 5.9126C19.7181 6.43664 19.4346 7.00279 18.9106 7.17712C18.3865 7.35145 17.8204 7.06795 17.646 6.5439C16.9859 4.55949 15.8188 3.07189 15.1288 2.59358C14.6749 2.27894 14.562 1.65592 14.8766 1.20202ZM3.32703 0.94988C3.78093 0.63524 4.40395 0.74813 4.71858 1.20202C5.03322 1.65592 4.92033 2.27894 4.46644 2.59358C3.77642 3.07189 2.60929 4.55949 1.94915 6.5439C1.77482 7.06795 1.20867 7.35145 0.684617 7.17712C0.160567 7.00279 -0.122933 6.43664 0.0513967 5.9126C0.802917 3.65348 2.17933 1.74546 3.32703 0.94988Z" fill="#CCCCCC"/>
</svg>
