<svg width="21" height="20" viewBox="0 0 21 20" fill="none" xmlns="http://www.w3.org/2000/svg">
<path d="M19.9474 19H1" stroke="#CCCCCC" stroke-width="2" stroke-linecap="round"/>
<path d="M1 8.57919L8.69822 2.42064C9.73625 1.59025 11.2111 1.59025 12.2491 2.42064L19.9474 8.57919" stroke="#CCCCCC" stroke-width="2" stroke-linecap="round"/>
<path d="M13.7896 3.36842V1.47368C13.7896 1.21208 14.0017 1 14.2632 1H16.6317C16.8932 1 17.1053 1.21208 17.1053 1.47368V6.21053" stroke="#CCCCCC" stroke-width="2" stroke-linecap="round"/>
<path d="M2.89478 18.9998V7.15771" stroke="#CCCCCC" stroke-width="2" stroke-linecap="round"/>
<path d="M18.0527 18.9998V7.15771" stroke="#CCCCCC" stroke-width="2" stroke-linecap="round"/>
<path d="M13 19V14.625C13 13.3876 13 12.7689 12.6339 12.3844C12.2678 12 11.6785 12 10.5 12C9.3215 12 8.73223 12 8.36612 12.3844C8 12.7689 8 13.3876 8 14.625V19" stroke="#CCCCCC" stroke-width="2"/>
<path d="M12.3683 7.15792C12.3683 8.20438 11.5201 9.05266 10.4736 9.05266C9.42713 9.05266 8.57886 8.20438 8.57886 7.15792C8.57886 6.11149 9.42713 5.26318 10.4736 5.26318C11.5201 5.26318 12.3683 6.11149 12.3683 7.15792Z" stroke="#CCCCCC" stroke-width="2"/>
</svg>
