<svg width="18" height="18" viewBox="0 0 18 18" fill="none" xmlns="http://www.w3.org/2000/svg">
<path d="M2.25 18C1.63125 18 1.10156 17.7797 0.660937 17.3391C0.220312 16.8984 0 16.3687 0 15.75C0 15.1312 0.220312 14.6016 0.660937 14.1609C1.10156 13.7203 1.63125 13.5 2.25 13.5C2.86875 13.5 3.39844 13.7203 3.83906 14.1609C4.27969 14.6016 4.5 15.1312 4.5 15.75C4.5 16.3687 4.27969 16.8984 3.83906 17.3391C3.39844 17.7797 2.86875 18 2.25 18ZM9 18C8.38125 18 7.85156 17.7797 7.41094 17.3391C6.97031 16.8984 6.75 16.3687 6.75 15.75C6.75 15.1312 6.97031 14.6016 7.41094 14.1609C7.85156 13.7203 8.38125 13.5 9 13.5C9.61875 13.5 10.1484 13.7203 10.5891 14.1609C11.0297 14.6016 11.25 15.1312 11.25 15.75C11.25 16.3687 11.0297 16.8984 10.5891 17.3391C10.1484 17.7797 9.61875 18 9 18ZM15.75 18C15.1312 18 14.6016 17.7797 14.1609 17.3391C13.7203 16.8984 13.5 16.3687 13.5 15.75C13.5 15.1312 13.7203 14.6016 14.1609 14.1609C14.6016 13.7203 15.1312 13.5 15.75 13.5C16.3687 13.5 16.8984 13.7203 17.3391 14.1609C17.7797 14.6016 18 15.1312 18 15.75C18 16.3687 17.7797 16.8984 17.3391 17.3391C16.8984 17.7797 16.3687 18 15.75 18ZM2.25 11.25C1.63125 11.25 1.10156 11.0297 0.660937 10.5891C0.220312 10.1484 0 9.61875 0 9C0 8.38125 0.220312 7.85156 0.660937 7.41094C1.10156 6.97031 1.63125 6.75 2.25 6.75C2.86875 6.75 3.39844 6.97031 3.83906 7.41094C4.27969 7.85156 4.5 8.38125 4.5 9C4.5 9.61875 4.27969 10.1484 3.83906 10.5891C3.39844 11.0297 2.86875 11.25 2.25 11.25ZM9 11.25C8.38125 11.25 7.85156 11.0297 7.41094 10.5891C6.97031 10.1484 6.75 9.61875 6.75 9C6.75 8.38125 6.97031 7.85156 7.41094 7.41094C7.85156 6.97031 8.38125 6.75 9 6.75C9.61875 6.75 10.1484 6.97031 10.5891 7.41094C11.0297 7.85156 11.25 8.38125 11.25 9C11.25 9.61875 11.0297 10.1484 10.5891 10.5891C10.1484 11.0297 9.61875 11.25 9 11.25ZM15.75 11.25C15.1312 11.25 14.6016 11.0297 14.1609 10.5891C13.7203 10.1484 13.5 9.61875 13.5 9C13.5 8.38125 13.7203 7.85156 14.1609 7.41094C14.6016 6.97031 15.1312 6.75 15.75 6.75C16.3687 6.75 16.8984 6.97031 17.3391 7.41094C17.7797 7.85156 18 8.38125 18 9C18 9.61875 17.7797 10.1484 17.3391 10.5891C16.8984 11.0297 16.3687 11.25 15.75 11.25ZM2.25 4.5C1.63125 4.5 1.10156 4.27969 0.660937 3.83906C0.220312 3.39844 0 2.86875 0 2.25C0 1.63125 0.220312 1.10156 0.660937 0.660937C1.10156 0.220312 1.63125 0 2.25 0C2.86875 0 3.39844 0.220312 3.83906 0.660937C4.27969 1.10156 4.5 1.63125 4.5 2.25C4.5 2.86875 4.27969 3.39844 3.83906 3.83906C3.39844 4.27969 2.86875 4.5 2.25 4.5ZM9 4.5C8.38125 4.5 7.85156 4.27969 7.41094 3.83906C6.97031 3.39844 6.75 2.86875 6.75 2.25C6.75 1.63125 6.97031 1.10156 7.41094 0.660937C7.85156 0.220312 8.38125 0 9 0C9.61875 0 10.1484 0.220312 10.5891 0.660937C11.0297 1.10156 11.25 1.63125 11.25 2.25C11.25 2.86875 11.0297 3.39844 10.5891 3.83906C10.1484 4.27969 9.61875 4.5 9 4.5ZM15.75 4.5C15.1312 4.5 14.6016 4.27969 14.1609 3.83906C13.7203 3.39844 13.5 2.86875 13.5 2.25C13.5 1.63125 13.7203 1.10156 14.1609 0.660937C14.6016 0.220312 15.1312 0 15.75 0C16.3687 0 16.8984 0.220312 17.3391 0.660937C17.7797 1.10156 18 1.63125 18 2.25C18 2.86875 17.7797 3.39844 17.3391 3.83906C16.8984 4.27969 16.3687 4.5 15.75 4.5Z" fill="white"/>
</svg>
